<?xml version="1.0" standalone="no"?>
<svg width="20" height="20" version="1.1" xmlns="http://www.w3.org/2000/svg">
    <rect width="1" height="1" x="0" y="0" fill="rgba( 196, 252, 17, 1)"/>
    <rect width="1" height="1" x="1" y="0" fill="rgba( 196, 252, 17, 1)"/>
    <rect width="1" height="1" x="2" y="0" fill="rgba( 127, 155, 22, 1)"/>
    <rect width="1" height="1" x="3" y="0" fill="rgba( 127, 155, 22, 1)"/>
    <rect width="1" height="1" x="4" y="0" fill="rgba( 127, 155, 22, 1)"/>
    <rect width="1" height="1" x="5" y="0" fill="rgba( 127, 155, 22, 1)"/>
    <rect width="1" height="1" x="6" y="0" fill="rgba( 196, 252, 17, 1)"/>
    <rect width="1" height="1" x="7" y="0" fill="rgba( 196, 252, 17, 1)"/>
    <rect width="1" height="1" x="8" y="0" fill="rgba( 232, 171, 165, 1)"/>
    <rect width="1" height="1" x="9" y="0" fill="rgba( 232, 171, 165, 1)"/>
    <rect width="1" height="1" x="10" y="0" fill="rgba( 232, 149, 173, 1)"/>
    <rect width="1" height="1" x="11" y="0" fill="rgba( 232, 149, 173, 1)"/>
    <rect width="1" height="1" x="12" y="0" fill="rgba( 123, 169, 52, 1)"/>
    <rect width="1" height="1" x="13" y="0" fill="rgba( 123, 169, 52, 1)"/>
    <rect width="1" height="1" x="14" y="0" fill="rgba( 123, 169, 52, 1)"/>
    <rect width="1" height="1" x="15" y="0" fill="rgba( 123, 169, 52, 1)"/>
    <rect width="1" height="1" x="16" y="0" fill="rgba( 126, 170, 52, 1)"/>
    <rect width="1" height="1" x="17" y="0" fill="rgba( 126, 170, 52, 1)"/>
    <rect width="1" height="1" x="18" y="0" fill="rgba( 84, 104, 41, 1)"/>
    <rect width="1" height="1" x="19" y="0" fill="rgba( 84, 104, 41, 1)"/>

    <rect width="1" height="1" x="0" y="1" fill="rgba( 196, 252, 17, 1)"/>
    <rect width="1" height="1" x="1" y="1" fill="rgba( 127, 155, 22, 1)"/>
    <rect width="1" height="1" x="2" y="1" fill="rgba( 127, 155, 22, 1)"/>
    <rect width="1" height="1" x="3" y="1" fill="rgba( 127, 155, 22, 1)"/>
    <rect width="1" height="1" x="4" y="1" fill="rgba( 127, 155, 22, 1)"/>
    <rect width="1" height="1" x="5" y="1" fill="rgba( 127, 155, 22, 1)"/>
    <rect width="1" height="1" x="6" y="1" fill="rgba( 127, 155, 22, 1)"/>
    <rect width="1" height="1" x="7" y="1" fill="rgba( 196, 252, 17, 1)"/>
    <rect width="1" height="1" x="8" y="1" fill="rgba( 232, 171, 165, 1)"/>
    <rect width="1" height="1" x="9" y="1" fill="rgba( 240, 157, 172, 1)"/>
    <rect width="1" height="1" x="10" y="1" fill="rgba( 233, 159, 166, 1)"/>
    <rect width="1" height="1" x="11" y="1" fill="rgba( 31, 41, 68, 1)"/>
    <rect width="1" height="1" x="12" y="1" fill="rgba( 123, 169, 52, 1)"/>
    <rect width="1" height="1" x="13" y="1" fill="rgba( 123, 169, 52, 1)"/>
    <rect width="1" height="1" x="14" y="1" fill="rgba( 123, 169, 52, 1)"/>
    <rect width="1" height="1" x="15" y="1" fill="rgba( 123, 169, 52, 1)"/>
    <rect width="1" height="1" x="16" y="1" fill="rgba( 123, 169, 52, 1)"/>
    <rect width="1" height="1" x="17" y="1" fill="rgba( 84, 104, 41, 1)"/>
    <rect width="1" height="1" x="18" y="1" fill="rgba( 84, 104, 41, 1)"/>
    <rect width="1" height="1" x="19" y="1" fill="rgba( 84, 104, 41, 1)"/>

    <rect width="1" height="1" x="0" y="2" fill="rgba( 127, 155, 22, 1)"/>
    <rect width="1" height="1" x="1" y="2" fill="rgba( 127, 155, 22, 1)"/>
    <rect width="1" height="1" x="2" y="2" fill="rgba( 127, 155, 22, 1)"/>
    <rect width="1" height="1" x="3" y="2" fill="rgba( 127, 155, 22, 1)"/>
    <rect width="1" height="1" x="4" y="2" fill="rgba( 127, 146, 31, 1)"/>
    <rect width="1" height="1" x="5" y="2" fill="rgba( 127, 146, 31, 1)"/>
    <rect width="1" height="1" x="6" y="2" fill="rgba( 127, 146, 31, 1)"/>
    <rect width="1" height="1" x="7" y="2" fill="rgba( 127, 146, 31, 1)"/>
    <rect width="1" height="1" x="8" y="2" fill="rgba( 229, 156, 176, 1)"/>
    <rect width="1" height="1" x="9" y="2" fill="rgba( 229, 156, 176, 1)"/>
    <rect width="1" height="1" x="10" y="2" fill="rgba( 66, 69, 79, 1)"/>
    <rect width="1" height="1" x="11" y="2" fill="rgba( 66, 69, 79, 1)"/>
    <rect width="1" height="1" x="12" y="2" fill="rgba( 31, 41, 68, 1)"/>
    <rect width="1" height="1" x="13" y="2" fill="rgba( 123, 169, 52, 1)"/>
    <rect width="1" height="1" x="14" y="2" fill="rgba( 123, 169, 52, 1)"/>
    <rect width="1" height="1" x="15" y="2" fill="rgba( 123, 169, 52, 1)"/>
    <rect width="1" height="1" x="16" y="2" fill="rgba( 82, 103, 41, 1)"/>
    <rect width="1" height="1" x="17" y="2" fill="rgba( 82, 103, 41, 1)"/>
    <rect width="1" height="1" x="18" y="2" fill="rgba( 84, 104, 41, 1)"/>
    <rect width="1" height="1" x="19" y="2" fill="rgba( 139, 95, 104, 1)"/>

    <rect width="1" height="1" x="0" y="3" fill="rgba( 127, 155, 22, 1)"/>
    <rect width="1" height="1" x="1" y="3" fill="rgba( 127, 155, 22, 1)"/>
    <rect width="1" height="1" x="2" y="3" fill="rgba( 127, 155, 22, 1)"/>
    <rect width="1" height="1" x="3" y="3" fill="rgba( 127, 146, 31, 1)"/>
    <rect width="1" height="1" x="4" y="3" fill="rgba( 127, 146, 31, 1)"/>
    <rect width="1" height="1" x="5" y="3" fill="rgba( 127, 146, 31, 1)"/>
    <rect width="1" height="1" x="6" y="3" fill="rgba( 127, 146, 31, 1)"/>
    <rect width="1" height="1" x="7" y="3" fill="rgba( 127, 146, 31, 1)"/>
    <rect width="1" height="1" x="8" y="3" fill="rgba( 228, 145, 179, 1)"/>
    <rect width="1" height="1" x="9" y="3" fill="rgba( 229, 156, 176, 1)"/>
    <rect width="1" height="1" x="10" y="3" fill="rgba( 66, 69, 79, 1)"/>
    <rect width="1" height="1" x="11" y="3" fill="rgba( 66, 69, 79, 1)"/>
    <rect width="1" height="1" x="12" y="3" fill="rgba( 31, 41, 68, 1)"/>
    <rect width="1" height="1" x="13" y="3" fill="rgba( 31, 41, 68, 1)"/>
    <rect width="1" height="1" x="14" y="3" fill="rgba( 123, 169, 52, 1)"/>
    <rect width="1" height="1" x="15" y="3" fill="rgba( 123, 169, 52, 1)"/>
    <rect width="1" height="1" x="16" y="3" fill="rgba( 82, 103, 41, 1)"/>
    <rect width="1" height="1" x="17" y="3" fill="rgba( 82, 103, 41, 1)"/>
    <rect width="1" height="1" x="18" y="3" fill="rgba( 139, 95, 104, 1)"/>
    <rect width="1" height="1" x="19" y="3" fill="rgba( 139, 95, 104, 1)"/>

    <rect width="1" height="1" x="0" y="4" fill="rgba( 92, 71, 75, 1)"/>
    <rect width="1" height="1" x="1" y="4" fill="rgba( 127, 155, 22, 1)"/>
    <rect width="1" height="1" x="2" y="4" fill="rgba( 127, 146, 31, 1)"/>
    <rect width="1" height="1" x="3" y="4" fill="rgba( 127, 146, 31, 1)"/>
    <rect width="1" height="1" x="4" y="4" fill="rgba( 210, 144, 109, 1)"/>
    <rect width="1" height="1" x="5" y="4" fill="rgba( 210, 144, 109, 1)"/>
    <rect width="1" height="1" x="6" y="4" fill="rgba( 210, 144, 109, 1)"/>
    <rect width="1" height="1" x="7" y="4" fill="rgba( 210, 144, 109, 1)"/>
    <rect width="1" height="1" x="8" y="4" fill="rgba( 77, 162, 29, 1)"/>
    <rect width="1" height="1" x="9" y="4" fill="rgba( 77, 162, 29, 1)"/>
    <rect width="1" height="1" x="10" y="4" fill="rgba( 66, 69, 79, 1)"/>
    <rect width="1" height="1" x="11" y="4" fill="rgba( 66, 69, 79, 1)"/>
    <rect width="1" height="1" x="12" y="4" fill="rgba( 31, 41, 68, 1)"/>
    <rect width="1" height="1" x="13" y="4" fill="rgba( 31, 41, 68, 1)"/>
    <rect width="1" height="1" x="14" y="4" fill="rgba( 31, 41, 68, 1)"/>
    <rect width="1" height="1" x="15" y="4" fill="rgba( 31, 41, 68, 1)"/>
    <rect width="1" height="1" x="16" y="4" fill="rgba( 30, 31, 50, 1)"/>
    <rect width="1" height="1" x="17" y="4" fill="rgba( 30, 31, 50, 1)"/>
    <rect width="1" height="1" x="18" y="4" fill="rgba( 106, 117, 76, 1)"/>
    <rect width="1" height="1" x="19" y="4" fill="rgba( 106, 117, 76, 1)"/>

    <rect width="1" height="1" x="0" y="5" fill="rgba( 92, 71, 75, 1)"/>
    <rect width="1" height="1" x="1" y="5" fill="rgba( 92, 71, 75, 1)"/>
    <rect width="1" height="1" x="2" y="5" fill="rgba( 127, 146, 31, 1)"/>
    <rect width="1" height="1" x="3" y="5" fill="rgba( 210, 144, 109, 1)"/>
    <rect width="1" height="1" x="4" y="5" fill="rgba( 210, 144, 109, 1)"/>
    <rect width="1" height="1" x="5" y="5" fill="rgba( 210, 144, 109, 1)"/>
    <rect width="1" height="1" x="6" y="5" fill="rgba( 210, 144, 109, 1)"/>
    <rect width="1" height="1" x="7" y="5" fill="rgba( 210, 144, 109, 1)"/>
    <rect width="1" height="1" x="8" y="5" fill="rgba( 210, 144, 109, 1)"/>
    <rect width="1" height="1" x="9" y="5" fill="rgba( 77, 162, 29, 1)"/>
    <rect width="1" height="1" x="10" y="5" fill="rgba( 67, 174, 14, 1)"/>
    <rect width="1" height="1" x="11" y="5" fill="rgba( 66, 69, 79, 1)"/>
    <rect width="1" height="1" x="12" y="5" fill="rgba( 31, 41, 68, 1)"/>
    <rect width="1" height="1" x="13" y="5" fill="rgba( 31, 41, 68, 1)"/>
    <rect width="1" height="1" x="14" y="5" fill="rgba( 31, 41, 68, 1)"/>
    <rect width="1" height="1" x="15" y="5" fill="rgba( 31, 41, 68, 1)"/>
    <rect width="1" height="1" x="16" y="5" fill="rgba( 30, 31, 50, 1)"/>
    <rect width="1" height="1" x="17" y="5" fill="rgba( 69, 95, 58, 1)"/>
    <rect width="1" height="1" x="18" y="5" fill="rgba( 106, 117, 76, 1)"/>
    <rect width="1" height="1" x="19" y="5" fill="rgba( 98, 116, 70, 1)"/>

    <rect width="1" height="1" x="0" y="6" fill="rgba( 137, 107, 108, 1)"/>
    <rect width="1" height="1" x="1" y="6" fill="rgba( 92, 71, 75, 1)"/>
    <rect width="1" height="1" x="2" y="6" fill="rgba( 210, 144, 109, 1)"/>
    <rect width="1" height="1" x="3" y="6" fill="rgba( 210, 144, 109, 1)"/>
    <rect width="1" height="1" x="4" y="6" fill="rgba( 210, 144, 109, 1)"/>
    <rect width="1" height="1" x="5" y="6" fill="rgba( 210, 144, 109, 1)"/>
    <rect width="1" height="1" x="6" y="6" fill="rgba( 210, 144, 109, 1)"/>
    <rect width="1" height="1" x="7" y="6" fill="rgba( 210, 144, 109, 1)"/>
    <rect width="1" height="1" x="8" y="6" fill="rgba( 210, 144, 109, 1)"/>
    <rect width="1" height="1" x="9" y="6" fill="rgba( 210, 144, 109, 1)"/>
    <rect width="1" height="1" x="10" y="6" fill="rgba( 67, 174, 14, 1)"/>
    <rect width="1" height="1" x="11" y="6" fill="rgba( 67, 174, 14, 1)"/>
    <rect width="1" height="1" x="12" y="6" fill="rgba( 44, 55, 77, 1)"/>
    <rect width="1" height="1" x="13" y="6" fill="rgba( 44, 55, 77, 1)"/>
    <rect width="1" height="1" x="14" y="6" fill="rgba( 44, 55, 77, 1)"/>
    <rect width="1" height="1" x="15" y="6" fill="rgba( 44, 55, 77, 1)"/>
    <rect width="1" height="1" x="16" y="6" fill="rgba( 157, 205, 79, 1)"/>
    <rect width="1" height="1" x="17" y="6" fill="rgba( 101, 124, 56, 1)"/>
    <rect width="1" height="1" x="18" y="6" fill="rgba( 94, 121, 53, 1)"/>
    <rect width="1" height="1" x="19" y="6" fill="rgba( 94, 121, 53, 1)"/>

    <rect width="1" height="1" x="0" y="7" fill="rgba( 137, 107, 108, 1)"/>
    <rect width="1" height="1" x="1" y="7" fill="rgba( 137, 107, 108, 1)"/>
    <rect width="1" height="1" x="2" y="7" fill="rgba( 210, 144, 109, 1)"/>
    <rect width="1" height="1" x="3" y="7" fill="rgba( 210, 144, 109, 1)"/>
    <rect width="1" height="1" x="4" y="7" fill="rgba( 210, 144, 109, 1)"/>
    <rect width="1" height="1" x="5" y="7" fill="rgba( 210, 144, 109, 1)"/>
    <rect width="1" height="1" x="6" y="7" fill="rgba( 210, 144, 109, 1)"/>
    <rect width="1" height="1" x="7" y="7" fill="rgba( 210, 144, 109, 1)"/>
    <rect width="1" height="1" x="8" y="7" fill="rgba( 210, 144, 109, 1)"/>
    <rect width="1" height="1" x="9" y="7" fill="rgba( 210, 144, 109, 1)"/>
    <rect width="1" height="1" x="10" y="7" fill="rgba( 67, 174, 14, 1)"/>
    <rect width="1" height="1" x="11" y="7" fill="rgba( 77, 177, 27, 1)"/>
    <rect width="1" height="1" x="12" y="7" fill="rgba( 44, 55, 77, 1)"/>
    <rect width="1" height="1" x="13" y="7" fill="rgba( 44, 55, 77, 1)"/>
    <rect width="1" height="1" x="14" y="7" fill="rgba( 44, 55, 77, 1)"/>
    <rect width="1" height="1" x="15" y="7" fill="rgba( 196, 190, 66, 1)"/>
    <rect width="1" height="1" x="16" y="7" fill="rgba( 159, 206, 87, 1)"/>
    <rect width="1" height="1" x="17" y="7" fill="rgba( 157, 205, 79, 1)"/>
    <rect width="1" height="1" x="18" y="7" fill="rgba( 94, 121, 53, 1)"/>
    <rect width="1" height="1" x="19" y="7" fill="rgba( 94, 121, 53, 1)"/>

    <rect width="1" height="1" x="0" y="8" fill="rgba( 160, 105, 106, 1)"/>
    <rect width="1" height="1" x="1" y="8" fill="rgba( 139, 117, 103, 1)"/>
    <rect width="1" height="1" x="2" y="8" fill="rgba( 0, 197, 90, 1)"/>
    <rect width="1" height="1" x="3" y="8" fill="rgba( 0, 197, 90, 1)"/>
    <rect width="1" height="1" x="4" y="8" fill="rgba( 0, 197, 90, 1)"/>
    <rect width="1" height="1" x="5" y="8" fill="rgba( 0, 197, 90, 1)"/>
    <rect width="1" height="1" x="6" y="8" fill="rgba( 210, 144, 109, 1)"/>
    <rect width="1" height="1" x="7" y="8" fill="rgba( 210, 144, 109, 1)"/>
    <rect width="1" height="1" x="8" y="8" fill="rgba( 210, 144, 109, 1)"/>
    <rect width="1" height="1" x="9" y="8" fill="rgba( 210, 144, 109, 1)"/>
    <rect width="1" height="1" x="10" y="8" fill="rgba( 77, 178, 33, 1)"/>
    <rect width="1" height="1" x="11" y="8" fill="rgba( 77, 178, 33, 1)"/>
    <rect width="1" height="1" x="12" y="8" fill="rgba( 61, 90, 33, 1)"/>
    <rect width="1" height="1" x="13" y="8" fill="rgba( 61, 90, 33, 1)"/>
    <rect width="1" height="1" x="14" y="8" fill="rgba( 59, 84, 28, 1)"/>
    <rect width="1" height="1" x="15" y="8" fill="rgba( 59, 84, 28, 1)"/>
    <rect width="1" height="1" x="16" y="8" fill="rgba( 159, 206, 87, 1)"/>
    <rect width="1" height="1" x="17" y="8" fill="rgba( 159, 206, 87, 1)"/>
    <rect width="1" height="1" x="18" y="8" fill="rgba( 144, 200, 74, 1)"/>
    <rect width="1" height="1" x="19" y="8" fill="rgba( 144, 200, 74, 1)"/>

    <rect width="1" height="1" x="0" y="9" fill="rgba( 160, 105, 106, 1)"/>
    <rect width="1" height="1" x="1" y="9" fill="rgba( 13, 200, 87, 1)"/>
    <rect width="1" height="1" x="2" y="9" fill="rgba( 13, 200, 87, 1)"/>
    <rect width="1" height="1" x="3" y="9" fill="rgba( 0, 197, 90, 1)"/>
    <rect width="1" height="1" x="4" y="9" fill="rgba( 0, 197, 90, 1)"/>
    <rect width="1" height="1" x="5" y="9" fill="rgba( 0, 197, 90, 1)"/>
    <rect width="1" height="1" x="6" y="9" fill="rgba( 0, 197, 90, 1)"/>
    <rect width="1" height="1" x="7" y="9" fill="rgba( 210, 144, 109, 1)"/>
    <rect width="1" height="1" x="8" y="9" fill="rgba( 210, 144, 109, 1)"/>
    <rect width="1" height="1" x="9" y="9" fill="rgba( 210, 144, 109, 1)"/>
    <rect width="1" height="1" x="10" y="9" fill="rgba( 77, 178, 33, 1)"/>
    <rect width="1" height="1" x="11" y="9" fill="rgba( 61, 90, 33, 1)"/>
    <rect width="1" height="1" x="12" y="9" fill="rgba( 61, 90, 33, 1)"/>
    <rect width="1" height="1" x="13" y="9" fill="rgba( 61, 90, 33, 1)"/>
    <rect width="1" height="1" x="14" y="9" fill="rgba( 61, 90, 33, 1)"/>
    <rect width="1" height="1" x="15" y="9" fill="rgba( 59, 84, 28, 1)"/>
    <rect width="1" height="1" x="16" y="9" fill="rgba( 112, 170, 74, 1)"/>
    <rect width="1" height="1" x="17" y="9" fill="rgba( 159, 206, 87, 1)"/>
    <rect width="1" height="1" x="18" y="9" fill="rgba( 144, 200, 74, 1)"/>
    <rect width="1" height="1" x="19" y="9" fill="rgba( 151, 159, 97, 1)"/>

    <rect width="1" height="1" x="0" y="10" fill="rgba( 13, 200, 87, 1)"/>
    <rect width="1" height="1" x="1" y="10" fill="rgba( 13, 200, 87, 1)"/>
    <rect width="1" height="1" x="2" y="10" fill="rgba( 13, 200, 87, 1)"/>
    <rect width="1" height="1" x="3" y="10" fill="rgba( 13, 200, 87, 1)"/>
    <rect width="1" height="1" x="4" y="10" fill="rgba( 0, 197, 90, 1)"/>
    <rect width="1" height="1" x="5" y="10" fill="rgba( 0, 197, 90, 1)"/>
    <rect width="1" height="1" x="6" y="10" fill="rgba( 0, 197, 90, 1)"/>
    <rect width="1" height="1" x="7" y="10" fill="rgba( 0, 197, 90, 1)"/>
    <rect width="1" height="1" x="8" y="10" fill="rgba( 210, 144, 109, 1)"/>
    <rect width="1" height="1" x="9" y="10" fill="rgba( 68, 175, 20, 1)"/>
    <rect width="1" height="1" x="10" y="10" fill="rgba( 61, 90, 33, 1)"/>
    <rect width="1" height="1" x="11" y="10" fill="rgba( 61, 90, 33, 1)"/>
    <rect width="1" height="1" x="12" y="10" fill="rgba( 61, 90, 33, 1)"/>
    <rect width="1" height="1" x="13" y="10" fill="rgba( 61, 90, 33, 1)"/>
    <rect width="1" height="1" x="14" y="10" fill="rgba( 61, 90, 33, 1)"/>
    <rect width="1" height="1" x="15" y="10" fill="rgba( 61, 90, 33, 1)"/>
    <rect width="1" height="1" x="16" y="10" fill="rgba( 59, 84, 28, 1)"/>
    <rect width="1" height="1" x="17" y="10" fill="rgba( 112, 170, 74, 1)"/>
    <rect width="1" height="1" x="18" y="10" fill="rgba( 151, 147, 117, 1)"/>
    <rect width="1" height="1" x="19" y="10" fill="rgba( 143, 146, 111, 1)"/>

    <rect width="1" height="1" x="0" y="11" fill="rgba( 13, 200, 87, 1)"/>
    <rect width="1" height="1" x="1" y="11" fill="rgba( 13, 200, 87, 1)"/>
    <rect width="1" height="1" x="2" y="11" fill="rgba( 13, 200, 87, 1)"/>
    <rect width="1" height="1" x="3" y="11" fill="rgba( 13, 200, 87, 1)"/>
    <rect width="1" height="1" x="4" y="11" fill="rgba( 0, 197, 90, 1)"/>
    <rect width="1" height="1" x="5" y="11" fill="rgba( 0, 197, 90, 1)"/>
    <rect width="1" height="1" x="6" y="11" fill="rgba( 0, 197, 90, 1)"/>
    <rect width="1" height="1" x="7" y="11" fill="rgba( 0, 197, 90, 1)"/>
    <rect width="1" height="1" x="8" y="11" fill="rgba( 68, 175, 20, 1)"/>
    <rect width="1" height="1" x="9" y="11" fill="rgba( 68, 175, 20, 1)"/>
    <rect width="1" height="1" x="10" y="11" fill="rgba( 61, 90, 33, 1)"/>
    <rect width="1" height="1" x="11" y="11" fill="rgba( 61, 90, 33, 1)"/>
    <rect width="1" height="1" x="12" y="11" fill="rgba( 61, 90, 33, 1)"/>
    <rect width="1" height="1" x="13" y="11" fill="rgba( 61, 90, 33, 1)"/>
    <rect width="1" height="1" x="14" y="11" fill="rgba( 61, 90, 33, 1)"/>
    <rect width="1" height="1" x="15" y="11" fill="rgba( 61, 90, 33, 1)"/>
    <rect width="1" height="1" x="16" y="11" fill="rgba( 59, 84, 28, 1)"/>
    <rect width="1" height="1" x="17" y="11" fill="rgba( 59, 84, 28, 1)"/>
    <rect width="1" height="1" x="18" y="11" fill="rgba( 151, 147, 117, 1)"/>
    <rect width="1" height="1" x="19" y="11" fill="rgba( 151, 147, 117, 1)"/>

    <rect width="1" height="1" x="0" y="12" fill="rgba( 22, 67, 169, 1)"/>
    <rect width="1" height="1" x="1" y="12" fill="rgba( 22, 67, 169, 1)"/>
    <rect width="1" height="1" x="2" y="12" fill="rgba( 22, 67, 169, 1)"/>
    <rect width="1" height="1" x="3" y="12" fill="rgba( 22, 67, 169, 1)"/>
    <rect width="1" height="1" x="4" y="12" fill="rgba( 0, 197, 90, 1)"/>
    <rect width="1" height="1" x="5" y="12" fill="rgba( 0, 197, 90, 1)"/>
    <rect width="1" height="1" x="6" y="12" fill="rgba( 0, 197, 90, 1)"/>
    <rect width="1" height="1" x="7" y="12" fill="rgba( 0, 197, 90, 1)"/>
    <rect width="1" height="1" x="8" y="12" fill="rgba( 208, 157, 18, 1)"/>
    <rect width="1" height="1" x="9" y="12" fill="rgba( 208, 157, 18, 1)"/>
    <rect width="1" height="1" x="10" y="12" fill="rgba( 50, 79, 21, 1)"/>
    <rect width="1" height="1" x="11" y="12" fill="rgba( 61, 90, 33, 1)"/>
    <rect width="1" height="1" x="12" y="12" fill="rgba( 61, 90, 33, 1)"/>
    <rect width="1" height="1" x="13" y="12" fill="rgba( 61, 90, 33, 1)"/>
    <rect width="1" height="1" x="14" y="12" fill="rgba( 61, 90, 33, 1)"/>
    <rect width="1" height="1" x="15" y="12" fill="rgba( 61, 90, 33, 1)"/>
    <rect width="1" height="1" x="16" y="12" fill="rgba( 59, 84, 28, 1)"/>
    <rect width="1" height="1" x="17" y="12" fill="rgba( 48, 72, 15, 1)"/>
    <rect width="1" height="1" x="18" y="12" fill="rgba( 161, 104, 132, 1)"/>
    <rect width="1" height="1" x="19" y="12" fill="rgba( 161, 104, 132, 1)"/>

    <rect width="1" height="1" x="0" y="13" fill="rgba( 22, 67, 169, 1)"/>
    <rect width="1" height="1" x="1" y="13" fill="rgba( 22, 67, 169, 1)"/>
    <rect width="1" height="1" x="2" y="13" fill="rgba( 22, 67, 169, 1)"/>
    <rect width="1" height="1" x="3" y="13" fill="rgba( 22, 67, 169, 1)"/>
    <rect width="1" height="1" x="4" y="13" fill="rgba( 10, 52, 179, 1)"/>
    <rect width="1" height="1" x="5" y="13" fill="rgba( 0, 197, 90, 1)"/>
    <rect width="1" height="1" x="6" y="13" fill="rgba( 0, 197, 90, 1)"/>
    <rect width="1" height="1" x="7" y="13" fill="rgba( 0, 197, 90, 1)"/>
    <rect width="1" height="1" x="8" y="13" fill="rgba( 208, 157, 18, 1)"/>
    <rect width="1" height="1" x="9" y="13" fill="rgba( 208, 157, 18, 1)"/>
    <rect width="1" height="1" x="10" y="13" fill="rgba( 50, 79, 21, 1)"/>
    <rect width="1" height="1" x="11" y="13" fill="rgba( 50, 79, 21, 1)"/>
    <rect width="1" height="1" x="12" y="13" fill="rgba( 61, 90, 33, 1)"/>
    <rect width="1" height="1" x="13" y="13" fill="rgba( 61, 90, 33, 1)"/>
    <rect width="1" height="1" x="14" y="13" fill="rgba( 61, 90, 33, 1)"/>
    <rect width="1" height="1" x="15" y="13" fill="rgba( 61, 90, 33, 1)"/>
    <rect width="1" height="1" x="16" y="13" fill="rgba( 48, 72, 15, 1)"/>
    <rect width="1" height="1" x="17" y="13" fill="rgba( 48, 72, 15, 1)"/>
    <rect width="1" height="1" x="18" y="13" fill="rgba( 161, 104, 132, 1)"/>
    <rect width="1" height="1" x="19" y="13" fill="rgba( 161, 104, 132, 1)"/>

    <rect width="1" height="1" x="0" y="14" fill="rgba( 22, 67, 169, 1)"/>
    <rect width="1" height="1" x="1" y="14" fill="rgba( 22, 67, 169, 1)"/>
    <rect width="1" height="1" x="2" y="14" fill="rgba( 22, 67, 169, 1)"/>
    <rect width="1" height="1" x="3" y="14" fill="rgba( 10, 52, 179, 1)"/>
    <rect width="1" height="1" x="4" y="14" fill="rgba( 10, 52, 179, 1)"/>
    <rect width="1" height="1" x="5" y="14" fill="rgba( 10, 52, 179, 1)"/>
    <rect width="1" height="1" x="6" y="14" fill="rgba( 0, 197, 90, 1)"/>
    <rect width="1" height="1" x="7" y="14" fill="rgba( 216, 155, 12, 1)"/>
    <rect width="1" height="1" x="8" y="14" fill="rgba( 216, 155, 12, 1)"/>
    <rect width="1" height="1" x="9" y="14" fill="rgba( 208, 157, 18, 1)"/>
    <rect width="1" height="1" x="10" y="14" fill="rgba( 208, 157, 18, 1)"/>
    <rect width="1" height="1" x="11" y="14" fill="rgba( 50, 79, 21, 1)"/>
    <rect width="1" height="1" x="12" y="14" fill="rgba( 50, 79, 21, 1)"/>
    <rect width="1" height="1" x="13" y="14" fill="rgba( 50, 79, 21, 1)"/>
    <rect width="1" height="1" x="14" y="14" fill="rgba( 50, 79, 21, 1)"/>
    <rect width="1" height="1" x="15" y="14" fill="rgba( 48, 72, 15, 1)"/>
    <rect width="1" height="1" x="16" y="14" fill="rgba( 48, 72, 15, 1)"/>
    <rect width="1" height="1" x="17" y="14" fill="rgba( 123, 161, 89, 1)"/>
    <rect width="1" height="1" x="18" y="14" fill="rgba( 97, 77, 184, 1)"/>
    <rect width="1" height="1" x="19" y="14" fill="rgba( 116, 67, 179, 1)"/>

    <rect width="1" height="1" x="0" y="15" fill="rgba( 22, 67, 169, 1)"/>
    <rect width="1" height="1" x="1" y="15" fill="rgba( 22, 67, 169, 1)"/>
    <rect width="1" height="1" x="2" y="15" fill="rgba( 10, 52, 179, 1)"/>
    <rect width="1" height="1" x="3" y="15" fill="rgba( 10, 52, 179, 1)"/>
    <rect width="1" height="1" x="4" y="15" fill="rgba( 10, 52, 179, 1)"/>
    <rect width="1" height="1" x="5" y="15" fill="rgba( 10, 52, 179, 1)"/>
    <rect width="1" height="1" x="6" y="15" fill="rgba( 216, 155, 12, 1)"/>
    <rect width="1" height="1" x="7" y="15" fill="rgba( 216, 155, 12, 1)"/>
    <rect width="1" height="1" x="8" y="15" fill="rgba( 216, 155, 12, 1)"/>
    <rect width="1" height="1" x="9" y="15" fill="rgba( 216, 155, 12, 1)"/>
    <rect width="1" height="1" x="10" y="15" fill="rgba( 208, 157, 18, 1)"/>
    <rect width="1" height="1" x="11" y="15" fill="rgba( 208, 157, 18, 1)"/>
    <rect width="1" height="1" x="12" y="15" fill="rgba( 50, 79, 21, 1)"/>
    <rect width="1" height="1" x="13" y="15" fill="rgba( 50, 79, 21, 1)"/>
    <rect width="1" height="1" x="14" y="15" fill="rgba( 48, 72, 15, 1)"/>
    <rect width="1" height="1" x="15" y="15" fill="rgba( 48, 72, 15, 1)"/>
    <rect width="1" height="1" x="16" y="15" fill="rgba( 118, 158, 89, 1)"/>
    <rect width="1" height="1" x="17" y="15" fill="rgba( 128, 160, 82, 1)"/>
    <rect width="1" height="1" x="18" y="15" fill="rgba( 123, 161, 89, 1)"/>
    <rect width="1" height="1" x="19" y="15" fill="rgba( 97, 77, 184, 1)"/>

    <rect width="1" height="1" x="0" y="16" fill="rgba( 10, 52, 179, 1)"/>
    <rect width="1" height="1" x="1" y="16" fill="rgba( 10, 52, 179, 1)"/>
    <rect width="1" height="1" x="2" y="16" fill="rgba( 10, 52, 179, 1)"/>
    <rect width="1" height="1" x="3" y="16" fill="rgba( 10, 52, 179, 1)"/>
    <rect width="1" height="1" x="4" y="16" fill="rgba( 10, 52, 179, 1)"/>
    <rect width="1" height="1" x="5" y="16" fill="rgba( 10, 52, 179, 1)"/>
    <rect width="1" height="1" x="6" y="16" fill="rgba( 5, 50, 255, 1)"/>
    <rect width="1" height="1" x="7" y="16" fill="rgba( 5, 50, 255, 1)"/>
    <rect width="1" height="1" x="8" y="16" fill="rgba( 216, 155, 12, 1)"/>
    <rect width="1" height="1" x="9" y="16" fill="rgba( 216, 155, 12, 1)"/>
    <rect width="1" height="1" x="10" y="16" fill="rgba( 216, 155, 12, 1)"/>
    <rect width="1" height="1" x="11" y="16" fill="rgba( 216, 155, 12, 1)"/>
    <rect width="1" height="1" x="12" y="16" fill="rgba( 53, 130, 197, 1)"/>
    <rect width="1" height="1" x="13" y="16" fill="rgba( 53, 130, 197, 1)"/>
    <rect width="1" height="1" x="14" y="16" fill="rgba( 53, 131, 200, 1)"/>
    <rect width="1" height="1" x="15" y="16" fill="rgba( 55, 131, 201, 1)"/>
    <rect width="1" height="1" x="16" y="16" fill="rgba( 118, 158, 89, 1)"/>
    <rect width="1" height="1" x="17" y="16" fill="rgba( 118, 158, 89, 1)"/>
    <rect width="1" height="1" x="18" y="16" fill="rgba( 128, 160, 82, 1)"/>
    <rect width="1" height="1" x="19" y="16" fill="rgba( 128, 160, 82, 1)"/>

    <rect width="1" height="1" x="0" y="17" fill="rgba( 10, 52, 179, 1)"/>
    <rect width="1" height="1" x="1" y="17" fill="rgba( 10, 52, 179, 1)"/>
    <rect width="1" height="1" x="2" y="17" fill="rgba( 10, 52, 179, 1)"/>
    <rect width="1" height="1" x="3" y="17" fill="rgba( 10, 52, 179, 1)"/>
    <rect width="1" height="1" x="4" y="17" fill="rgba( 10, 52, 179, 1)"/>
    <rect width="1" height="1" x="5" y="17" fill="rgba( 10, 52, 179, 1)"/>
    <rect width="1" height="1" x="6" y="17" fill="rgba( 5, 50, 255, 1)"/>
    <rect width="1" height="1" x="7" y="17" fill="rgba( 5, 50, 255, 1)"/>
    <rect width="1" height="1" x="8" y="17" fill="rgba( 5, 50, 255, 1)"/>
    <rect width="1" height="1" x="9" y="17" fill="rgba( 216, 155, 12, 1)"/>
    <rect width="1" height="1" x="10" y="17" fill="rgba( 216, 155, 12, 1)"/>
    <rect width="1" height="1" x="11" y="17" fill="rgba( 65, 130, 193, 1)"/>
    <rect width="1" height="1" x="12" y="17" fill="rgba( 57, 130, 199, 1)"/>
    <rect width="1" height="1" x="13" y="17" fill="rgba( 53, 130, 197, 1)"/>
    <rect width="1" height="1" x="14" y="17" fill="rgba( 53, 131, 200, 1)"/>
    <rect width="1" height="1" x="15" y="17" fill="rgba( 53, 131, 200, 1)"/>
    <rect width="1" height="1" x="16" y="17" fill="rgba( 55, 131, 201, 1)"/>
    <rect width="1" height="1" x="17" y="17" fill="rgba( 118, 158, 89, 1)"/>
    <rect width="1" height="1" x="18" y="17" fill="rgba( 128, 160, 82, 1)"/>
    <rect width="1" height="1" x="19" y="17" fill="rgba( 128, 160, 82, 1)"/>

    <rect width="1" height="1" x="0" y="18" fill="rgba( 10, 212, 2, 1)"/>
    <rect width="1" height="1" x="1" y="18" fill="rgba( 10, 212, 2, 1)"/>
    <rect width="1" height="1" x="2" y="18" fill="rgba( 10, 212, 2, 1)"/>
    <rect width="1" height="1" x="3" y="18" fill="rgba( 10, 212, 2, 1)"/>
    <rect width="1" height="1" x="4" y="18" fill="rgba( 10, 52, 179, 1)"/>
    <rect width="1" height="1" x="5" y="18" fill="rgba( 5, 50, 255, 1)"/>
    <rect width="1" height="1" x="6" y="18" fill="rgba( 5, 50, 255, 1)"/>
    <rect width="1" height="1" x="7" y="18" fill="rgba( 5, 50, 255, 1)"/>
    <rect width="1" height="1" x="8" y="18" fill="rgba( 5, 50, 255, 1)"/>
    <rect width="1" height="1" x="9" y="18" fill="rgba( 5, 50, 255, 1)"/>
    <rect width="1" height="1" x="10" y="18" fill="rgba( 65, 130, 193, 1)"/>
    <rect width="1" height="1" x="11" y="18" fill="rgba( 57, 120, 205, 1)"/>
    <rect width="1" height="1" x="12" y="18" fill="rgba( 57, 130, 199, 1)"/>
    <rect width="1" height="1" x="13" y="18" fill="rgba( 57, 130, 199, 1)"/>
    <rect width="1" height="1" x="14" y="18" fill="rgba( 53, 130, 197, 1)"/>
    <rect width="1" height="1" x="15" y="18" fill="rgba( 53, 131, 200, 1)"/>
    <rect width="1" height="1" x="16" y="18" fill="rgba( 53, 131, 201, 1)"/>
    <rect width="1" height="1" x="17" y="18" fill="rgba( 53, 131, 201, 1)"/>
    <rect width="1" height="1" x="18" y="18" fill="rgba( 138, 193, 98, 1)"/>
    <rect width="1" height="1" x="19" y="18" fill="rgba( 138, 193, 98, 1)"/>

    <rect width="1" height="1" x="0" y="19" fill="rgba( 10, 212, 2, 1)"/>
    <rect width="1" height="1" x="1" y="19" fill="rgba( 10, 212, 2, 1)"/>
    <rect width="1" height="1" x="2" y="19" fill="rgba( 10, 212, 2, 1)"/>
    <rect width="1" height="1" x="3" y="19" fill="rgba( 10, 212, 2, 1)"/>
    <rect width="1" height="1" x="4" y="19" fill="rgba( 10, 212, 2, 1)"/>
    <rect width="1" height="1" x="5" y="19" fill="rgba( 5, 50, 255, 1)"/>
    <rect width="1" height="1" x="6" y="19" fill="rgba( 5, 50, 255, 1)"/>
    <rect width="1" height="1" x="7" y="19" fill="rgba( 5, 50, 255, 1)"/>
    <rect width="1" height="1" x="8" y="19" fill="rgba( 5, 50, 255, 1)"/>
    <rect width="1" height="1" x="9" y="19" fill="rgba( 5, 50, 255, 1)"/>
    <rect width="1" height="1" x="10" y="19" fill="rgba( 57, 120, 205, 1)"/>
    <rect width="1" height="1" x="11" y="19" fill="rgba( 57, 120, 205, 1)"/>
    <rect width="1" height="1" x="12" y="19" fill="rgba( 57, 130, 199, 1)"/>
    <rect width="1" height="1" x="13" y="19" fill="rgba( 57, 130, 199, 1)"/>
    <rect width="1" height="1" x="14" y="19" fill="rgba( 53, 130, 197, 1)"/>
    <rect width="1" height="1" x="15" y="19" fill="rgba( 53, 130, 197, 1)"/>
    <rect width="1" height="1" x="16" y="19" fill="rgba( 53, 131, 201, 1)"/>
    <rect width="1" height="1" x="17" y="19" fill="rgba( 57, 134, 202, 1)"/>
    <rect width="1" height="1" x="18" y="19" fill="rgba( 138, 193, 98, 1)"/>
    <rect width="1" height="1" x="19" y="19" fill="rgba( 138, 193, 98, 1)"/>

</svg>