<?xml version="1.0" standalone="no"?>
<svg width="20" height="20" version="1.1" xmlns="http://www.w3.org/2000/svg">
    <rect width="1" height="1" x="0" y="0" fill="rgba( 0, 0, 0, 1)"/>
    <rect width="1" height="1" x="1" y="0" fill="rgba( 0, 0, 0, 1)"/>
    <rect width="1" height="1" x="2" y="0" fill="rgba( 0, 0, 0, 1)"/>
    <rect width="1" height="1" x="3" y="0" fill="rgba( 0, 0, 0, 1)"/>
    <rect width="1" height="1" x="4" y="0" fill="rgba( 0, 0, 0, 1)"/>
    <rect width="1" height="1" x="5" y="0" fill="rgba( 0, 0, 0, 1)"/>
    <rect width="1" height="1" x="6" y="0" fill="rgba( 0, 0, 0, 1)"/>
    <rect width="1" height="1" x="7" y="0" fill="rgba( 0, 0, 0, 1)"/>
    <rect width="1" height="1" x="8" y="0" fill="rgba( 0, 0, 0, 1)"/>
    <rect width="1" height="1" x="9" y="0" fill="rgba( 0, 0, 0, 1)"/>
    <rect width="1" height="1" x="10" y="0" fill="rgba( 0, 0, 255, 1)"/>
    <rect width="1" height="1" x="11" y="0" fill="rgba( 0, 0, 0, 1)"/>
    <rect width="1" height="1" x="12" y="0" fill="rgba( 0, 0, 0, 1)"/>
    <rect width="1" height="1" x="13" y="0" fill="rgba( 0, 0, 0, 1)"/>
    <rect width="1" height="1" x="14" y="0" fill="rgba( 0, 0, 0, 1)"/>
    <rect width="1" height="1" x="15" y="0" fill="rgba( 0, 0, 0, 1)"/>
    <rect width="1" height="1" x="16" y="0" fill="rgba( 0, 0, 0, 1)"/>
    <rect width="1" height="1" x="17" y="0" fill="rgba( 0, 0, 0, 1)"/>
    <rect width="1" height="1" x="18" y="0" fill="rgba( 0, 0, 0, 1)"/>
    <rect width="1" height="1" x="19" y="0" fill="rgba( 0, 0, 0, 1)"/>

    <rect width="1" height="1" x="0" y="1" fill="rgba( 0, 0, 0, 1)"/>
    <rect width="1" height="1" x="1" y="1" fill="rgba( 0, 0, 0, 1)"/>
    <rect width="1" height="1" x="2" y="1" fill="rgba( 0, 0, 0, 1)"/>
    <rect width="1" height="1" x="3" y="1" fill="rgba( 0, 0, 0, 1)"/>
    <rect width="1" height="1" x="4" y="1" fill="rgba( 0, 0, 0, 1)"/>
    <rect width="1" height="1" x="5" y="1" fill="rgba( 0, 0, 0, 1)"/>
    <rect width="1" height="1" x="6" y="1" fill="rgba( 0, 0, 0, 1)"/>
    <rect width="1" height="1" x="7" y="1" fill="rgba( 0, 0, 0, 1)"/>
    <rect width="1" height="1" x="8" y="1" fill="rgba( 0, 0, 0, 1)"/>
    <rect width="1" height="1" x="9" y="1" fill="rgba( 25, 0, 229, 1)"/>
    <rect width="1" height="1" x="10" y="1" fill="rgba( 16, 8, 230, 1)"/>
    <rect width="1" height="1" x="11" y="1" fill="rgba( 0, 0, 0, 1)"/>
    <rect width="1" height="1" x="12" y="1" fill="rgba( 0, 0, 0, 1)"/>
    <rect width="1" height="1" x="13" y="1" fill="rgba( 0, 0, 0, 1)"/>
    <rect width="1" height="1" x="14" y="1" fill="rgba( 0, 0, 0, 1)"/>
    <rect width="1" height="1" x="15" y="1" fill="rgba( 0, 0, 0, 1)"/>
    <rect width="1" height="1" x="16" y="1" fill="rgba( 0, 0, 0, 1)"/>
    <rect width="1" height="1" x="17" y="1" fill="rgba( 0, 0, 0, 1)"/>
    <rect width="1" height="1" x="18" y="1" fill="rgba( 0, 0, 0, 1)"/>
    <rect width="1" height="1" x="19" y="1" fill="rgba( 0, 0, 0, 1)"/>

    <rect width="1" height="1" x="0" y="2" fill="rgba( 0, 0, 0, 1)"/>
    <rect width="1" height="1" x="1" y="2" fill="rgba( 0, 0, 0, 1)"/>
    <rect width="1" height="1" x="2" y="2" fill="rgba( 0, 0, 0, 1)"/>
    <rect width="1" height="1" x="3" y="2" fill="rgba( 0, 0, 0, 1)"/>
    <rect width="1" height="1" x="4" y="2" fill="rgba( 0, 0, 0, 1)"/>
    <rect width="1" height="1" x="5" y="2" fill="rgba( 0, 0, 0, 1)"/>
    <rect width="1" height="1" x="6" y="2" fill="rgba( 0, 0, 0, 1)"/>
    <rect width="1" height="1" x="7" y="2" fill="rgba( 0, 0, 0, 1)"/>
    <rect width="1" height="1" x="8" y="2" fill="rgba( 51, 0, 204, 1)"/>
    <rect width="1" height="1" x="9" y="2" fill="rgba( 40, 8, 204, 1)"/>
    <rect width="1" height="1" x="10" y="2" fill="rgba( 31, 16, 206, 1)"/>
    <rect width="1" height="1" x="11" y="2" fill="rgba( 22, 25, 206, 1)"/>
    <rect width="1" height="1" x="12" y="2" fill="rgba( 0, 0, 0, 1)"/>
    <rect width="1" height="1" x="13" y="2" fill="rgba( 0, 0, 0, 1)"/>
    <rect width="1" height="1" x="14" y="2" fill="rgba( 0, 0, 0, 1)"/>
    <rect width="1" height="1" x="15" y="2" fill="rgba( 0, 0, 0, 1)"/>
    <rect width="1" height="1" x="16" y="2" fill="rgba( 0, 0, 0, 1)"/>
    <rect width="1" height="1" x="17" y="2" fill="rgba( 0, 0, 0, 1)"/>
    <rect width="1" height="1" x="18" y="2" fill="rgba( 0, 0, 0, 1)"/>
    <rect width="1" height="1" x="19" y="2" fill="rgba( 0, 0, 0, 1)"/>

    <rect width="1" height="1" x="0" y="3" fill="rgba( 0, 0, 0, 1)"/>
    <rect width="1" height="1" x="1" y="3" fill="rgba( 0, 0, 0, 1)"/>
    <rect width="1" height="1" x="2" y="3" fill="rgba( 0, 0, 0, 1)"/>
    <rect width="1" height="1" x="3" y="3" fill="rgba( 0, 0, 0, 1)"/>
    <rect width="1" height="1" x="4" y="3" fill="rgba( 0, 0, 0, 1)"/>
    <rect width="1" height="1" x="5" y="3" fill="rgba( 0, 0, 0, 1)"/>
    <rect width="1" height="1" x="6" y="3" fill="rgba( 0, 0, 0, 1)"/>
    <rect width="1" height="1" x="7" y="3" fill="rgba( 76, 0, 178, 1)"/>
    <rect width="1" height="1" x="8" y="3" fill="rgba( 65, 8, 180, 1)"/>
    <rect width="1" height="1" x="9" y="3" fill="rgba( 55, 16, 182, 1)"/>
    <rect width="1" height="1" x="10" y="3" fill="rgba( 45, 25, 183, 1)"/>
    <rect width="1" height="1" x="11" y="3" fill="rgba( 36, 33, 183, 1)"/>
    <rect width="1" height="1" x="12" y="3" fill="rgba( 0, 0, 0, 1)"/>
    <rect width="1" height="1" x="13" y="3" fill="rgba( 0, 0, 0, 1)"/>
    <rect width="1" height="1" x="14" y="3" fill="rgba( 0, 0, 0, 1)"/>
    <rect width="1" height="1" x="15" y="3" fill="rgba( 0, 0, 0, 1)"/>
    <rect width="1" height="1" x="16" y="3" fill="rgba( 0, 0, 0, 1)"/>
    <rect width="1" height="1" x="17" y="3" fill="rgba( 0, 0, 0, 1)"/>
    <rect width="1" height="1" x="18" y="3" fill="rgba( 0, 0, 0, 1)"/>
    <rect width="1" height="1" x="19" y="3" fill="rgba( 0, 0, 0, 1)"/>

    <rect width="1" height="1" x="0" y="4" fill="rgba( 0, 0, 0, 1)"/>
    <rect width="1" height="1" x="1" y="4" fill="rgba( 0, 0, 0, 1)"/>
    <rect width="1" height="1" x="2" y="4" fill="rgba( 0, 0, 0, 1)"/>
    <rect width="1" height="1" x="3" y="4" fill="rgba( 0, 0, 0, 1)"/>
    <rect width="1" height="1" x="4" y="4" fill="rgba( 0, 0, 0, 1)"/>
    <rect width="1" height="1" x="5" y="4" fill="rgba( 0, 0, 0, 1)"/>
    <rect width="1" height="1" x="6" y="4" fill="rgba( 102, 0, 153, 1)"/>
    <rect width="1" height="1" x="7" y="4" fill="rgba( 89, 8, 155, 1)"/>
    <rect width="1" height="1" x="8" y="4" fill="rgba( 79, 16, 158, 1)"/>
    <rect width="1" height="1" x="9" y="4" fill="rgba( 68, 25, 160, 1)"/>
    <rect width="1" height="1" x="10" y="4" fill="rgba( 58, 33, 162, 1)"/>
    <rect width="1" height="1" x="11" y="4" fill="rgba( 49, 42, 162, 1)"/>
    <rect width="1" height="1" x="12" y="4" fill="rgba( 40, 50, 163, 1)"/>
    <rect width="1" height="1" x="13" y="4" fill="rgba( 0, 0, 0, 1)"/>
    <rect width="1" height="1" x="14" y="4" fill="rgba( 0, 0, 0, 1)"/>
    <rect width="1" height="1" x="15" y="4" fill="rgba( 0, 0, 0, 1)"/>
    <rect width="1" height="1" x="16" y="4" fill="rgba( 0, 0, 0, 1)"/>
    <rect width="1" height="1" x="17" y="4" fill="rgba( 0, 0, 0, 1)"/>
    <rect width="1" height="1" x="18" y="4" fill="rgba( 0, 0, 0, 1)"/>
    <rect width="1" height="1" x="19" y="4" fill="rgba( 0, 0, 0, 1)"/>

    <rect width="1" height="1" x="0" y="5" fill="rgba( 0, 0, 0, 1)"/>
    <rect width="1" height="1" x="1" y="5" fill="rgba( 0, 0, 0, 1)"/>
    <rect width="1" height="1" x="2" y="5" fill="rgba( 0, 0, 0, 1)"/>
    <rect width="1" height="1" x="3" y="5" fill="rgba( 0, 0, 0, 1)"/>
    <rect width="1" height="1" x="4" y="5" fill="rgba( 0, 0, 0, 1)"/>
    <rect width="1" height="1" x="5" y="5" fill="rgba( 127, 0, 127, 1)"/>
    <rect width="1" height="1" x="6" y="5" fill="rgba( 115, 8, 131, 1)"/>
    <rect width="1" height="1" x="7" y="5" fill="rgba( 102, 16, 134, 1)"/>
    <rect width="1" height="1" x="8" y="5" fill="rgba( 91, 25, 137, 1)"/>
    <rect width="1" height="1" x="9" y="5" fill="rgba( 80, 33, 139, 1)"/>
    <rect width="1" height="1" x="10" y="5" fill="rgba( 70, 42, 141, 1)"/>
    <rect width="1" height="1" x="11" y="5" fill="rgba( 60, 50, 142, 1)"/>
    <rect width="1" height="1" x="12" y="5" fill="rgba( 52, 59, 143, 1)"/>
    <rect width="1" height="1" x="13" y="5" fill="rgba( 0, 0, 0, 1)"/>
    <rect width="1" height="1" x="14" y="5" fill="rgba( 0, 0, 0, 1)"/>
    <rect width="1" height="1" x="15" y="5" fill="rgba( 0, 0, 0, 1)"/>
    <rect width="1" height="1" x="16" y="5" fill="rgba( 0, 0, 0, 1)"/>
    <rect width="1" height="1" x="17" y="5" fill="rgba( 0, 0, 0, 1)"/>
    <rect width="1" height="1" x="18" y="5" fill="rgba( 0, 0, 0, 1)"/>
    <rect width="1" height="1" x="19" y="5" fill="rgba( 0, 0, 0, 1)"/>

    <rect width="1" height="1" x="0" y="6" fill="rgba( 0, 0, 0, 1)"/>
    <rect width="1" height="1" x="1" y="6" fill="rgba( 0, 0, 0, 1)"/>
    <rect width="1" height="1" x="2" y="6" fill="rgba( 0, 0, 0, 1)"/>
    <rect width="1" height="1" x="3" y="6" fill="rgba( 0, 0, 0, 1)"/>
    <rect width="1" height="1" x="4" y="6" fill="rgba( 153, 0, 102, 1)"/>
    <rect width="1" height="1" x="5" y="6" fill="rgba( 139, 8, 106, 1)"/>
    <rect width="1" height="1" x="6" y="6" fill="rgba( 126, 16, 111, 1)"/>
    <rect width="1" height="1" x="7" y="6" fill="rgba( 114, 25, 114, 1)"/>
    <rect width="1" height="1" x="8" y="6" fill="rgba( 103, 33, 117, 1)"/>
    <rect width="1" height="1" x="9" y="6" fill="rgba( 91, 42, 120, 1)"/>
    <rect width="1" height="1" x="10" y="6" fill="rgba( 81, 50, 122, 1)"/>
    <rect width="1" height="1" x="11" y="6" fill="rgba( 71, 59, 123, 1)"/>
    <rect width="1" height="1" x="12" y="6" fill="rgba( 62, 67, 124, 1)"/>
    <rect width="1" height="1" x="13" y="6" fill="rgba( 53, 76, 124, 1)"/>
    <rect width="1" height="1" x="14" y="6" fill="rgba( 0, 0, 0, 1)"/>
    <rect width="1" height="1" x="15" y="6" fill="rgba( 0, 0, 0, 1)"/>
    <rect width="1" height="1" x="16" y="6" fill="rgba( 0, 0, 0, 1)"/>
    <rect width="1" height="1" x="17" y="6" fill="rgba( 0, 0, 0, 1)"/>
    <rect width="1" height="1" x="18" y="6" fill="rgba( 0, 0, 0, 1)"/>
    <rect width="1" height="1" x="19" y="6" fill="rgba( 0, 0, 0, 1)"/>

    <rect width="1" height="1" x="0" y="7" fill="rgba( 0, 0, 0, 1)"/>
    <rect width="1" height="1" x="1" y="7" fill="rgba( 0, 0, 0, 1)"/>
    <rect width="1" height="1" x="2" y="7" fill="rgba( 0, 0, 0, 1)"/>
    <rect width="1" height="1" x="3" y="7" fill="rgba( 178, 0, 76, 1)"/>
    <rect width="1" height="1" x="4" y="7" fill="rgba( 164, 8, 82, 1)"/>
    <rect width="1" height="1" x="5" y="7" fill="rgba( 150, 16, 86, 1)"/>
    <rect width="1" height="1" x="6" y="7" fill="rgba( 137, 25, 91, 1)"/>
    <rect width="1" height="1" x="7" y="7" fill="rgba( 124, 33, 95, 1)"/>
    <rect width="1" height="1" x="8" y="7" fill="rgba( 113, 42, 99, 1)"/>
    <rect width="1" height="1" x="9" y="7" fill="rgba( 101, 50, 101, 1)"/>
    <rect width="1" height="1" x="10" y="7" fill="rgba( 91, 59, 104, 1)"/>
    <rect width="1" height="1" x="11" y="7" fill="rgba( 80, 67, 105, 1)"/>
    <rect width="1" height="1" x="12" y="7" fill="rgba( 71, 76, 107, 1)"/>
    <rect width="1" height="1" x="13" y="7" fill="rgba( 62, 84, 107, 1)"/>
    <rect width="1" height="1" x="14" y="7" fill="rgba( 0, 0, 0, 1)"/>
    <rect width="1" height="1" x="15" y="7" fill="rgba( 0, 0, 0, 1)"/>
    <rect width="1" height="1" x="16" y="7" fill="rgba( 0, 0, 0, 1)"/>
    <rect width="1" height="1" x="17" y="7" fill="rgba( 0, 0, 0, 1)"/>
    <rect width="1" height="1" x="18" y="7" fill="rgba( 0, 0, 0, 1)"/>
    <rect width="1" height="1" x="19" y="7" fill="rgba( 0, 0, 0, 1)"/>

    <rect width="1" height="1" x="0" y="8" fill="rgba( 0, 0, 0, 1)"/>
    <rect width="1" height="1" x="1" y="8" fill="rgba( 0, 0, 0, 1)"/>
    <rect width="1" height="1" x="2" y="8" fill="rgba( 204, 0, 51, 1)"/>
    <rect width="1" height="1" x="3" y="8" fill="rgba( 188, 8, 57, 1)"/>
    <rect width="1" height="1" x="4" y="8" fill="rgba( 174, 16, 63, 1)"/>
    <rect width="1" height="1" x="5" y="8" fill="rgba( 160, 25, 68, 1)"/>
    <rect width="1" height="1" x="6" y="8" fill="rgba( 147, 33, 73, 1)"/>
    <rect width="1" height="1" x="7" y="8" fill="rgba( 134, 42, 77, 1)"/>
    <rect width="1" height="1" x="8" y="8" fill="rgba( 122, 51, 81, 1)"/>
    <rect width="1" height="1" x="9" y="8" fill="rgba( 110, 59, 84, 1)"/>
    <rect width="1" height="1" x="10" y="8" fill="rgba( 99, 68, 87, 1)"/>
    <rect width="1" height="1" x="11" y="8" fill="rgba( 88, 76, 88, 1)"/>
    <rect width="1" height="1" x="12" y="8" fill="rgba( 79, 84, 90, 1)"/>
    <rect width="1" height="1" x="13" y="8" fill="rgba( 69, 93, 91, 1)"/>
    <rect width="1" height="1" x="14" y="8" fill="rgba( 61, 101, 91, 1)"/>
    <rect width="1" height="1" x="15" y="8" fill="rgba( 0, 0, 0, 1)"/>
    <rect width="1" height="1" x="16" y="8" fill="rgba( 0, 0, 0, 1)"/>
    <rect width="1" height="1" x="17" y="8" fill="rgba( 0, 0, 0, 1)"/>
    <rect width="1" height="1" x="18" y="8" fill="rgba( 0, 0, 0, 1)"/>
    <rect width="1" height="1" x="19" y="8" fill="rgba( 0, 0, 0, 1)"/>

    <rect width="1" height="1" x="0" y="9" fill="rgba( 0, 0, 0, 1)"/>
    <rect width="1" height="1" x="1" y="9" fill="rgba( 229, 0, 25, 1)"/>
    <rect width="1" height="1" x="2" y="9" fill="rgba( 213, 8, 32, 1)"/>
    <rect width="1" height="1" x="3" y="9" fill="rgba( 197, 17, 39, 1)"/>
    <rect width="1" height="1" x="4" y="9" fill="rgba( 183, 25, 45, 1)"/>
    <rect width="1" height="1" x="5" y="9" fill="rgba( 169, 34, 51, 1)"/>
    <rect width="1" height="1" x="6" y="9" fill="rgba( 155, 42, 56, 1)"/>
    <rect width="1" height="1" x="7" y="9" fill="rgba( 142, 50, 60, 1)"/>
    <rect width="1" height="1" x="8" y="9" fill="rgba( 130, 59, 65, 1)"/>
    <rect width="1" height="1" x="9" y="9" fill="rgba( 118, 67, 68, 1)"/>
    <rect width="1" height="1" x="10" y="9" fill="rgba( 107, 76, 71, 1)"/>
    <rect width="1" height="1" x="11" y="9" fill="rgba( 96, 84, 73, 1)"/>
    <rect width="1" height="1" x="12" y="9" fill="rgba( 86, 93, 75, 1)"/>
    <rect width="1" height="1" x="13" y="9" fill="rgba( 76, 101, 76, 1)"/>
    <rect width="1" height="1" x="14" y="9" fill="rgba( 67, 110, 77, 1)"/>
    <rect width="1" height="1" x="15" y="9" fill="rgba( 0, 0, 0, 1)"/>
    <rect width="1" height="1" x="16" y="9" fill="rgba( 0, 0, 0, 1)"/>
    <rect width="1" height="1" x="17" y="9" fill="rgba( 0, 0, 0, 1)"/>
    <rect width="1" height="1" x="18" y="9" fill="rgba( 0, 0, 0, 1)"/>
    <rect width="1" height="1" x="19" y="9" fill="rgba( 0, 0, 0, 1)"/>

    <rect width="1" height="1" x="0" y="10" fill="rgba( 255, 0, 0, 1)"/>
    <rect width="1" height="1" x="1" y="10" fill="rgba( 237, 8, 7, 1)"/>
    <rect width="1" height="1" x="2" y="10" fill="rgba( 222, 16, 15, 1)"/>
    <rect width="1" height="1" x="3" y="10" fill="rgba( 206, 25, 22, 1)"/>
    <rect width="1" height="1" x="4" y="10" fill="rgba( 191, 33, 29, 1)"/>
    <rect width="1" height="1" x="5" y="10" fill="rgba( 176, 42, 35, 1)"/>
    <rect width="1" height="1" x="6" y="10" fill="rgba( 163, 50, 40, 1)"/>
    <rect width="1" height="1" x="7" y="10" fill="rgba( 149, 59, 45, 1)"/>
    <rect width="1" height="1" x="8" y="10" fill="rgba( 137, 67, 49, 1)"/>
    <rect width="1" height="1" x="9" y="10" fill="rgba( 124, 76, 53, 1)"/>
    <rect width="1" height="1" x="10" y="10" fill="rgba( 113, 84, 56, 1)"/>
    <rect width="1" height="1" x="11" y="10" fill="rgba( 101, 93, 58, 1)"/>
    <rect width="1" height="1" x="12" y="10" fill="rgba( 91, 102, 61, 1)"/>
    <rect width="1" height="1" x="13" y="10" fill="rgba( 81, 110, 62, 1)"/>
    <rect width="1" height="1" x="14" y="10" fill="rgba( 72, 119, 63, 1)"/>
    <rect width="1" height="1" x="15" y="10" fill="rgba( 63, 127, 63, 1)"/>
    <rect width="1" height="1" x="16" y="10" fill="rgba( 0, 0, 0, 1)"/>
    <rect width="1" height="1" x="17" y="10" fill="rgba( 0, 0, 0, 1)"/>
    <rect width="1" height="1" x="18" y="10" fill="rgba( 0, 0, 0, 1)"/>
    <rect width="1" height="1" x="19" y="10" fill="rgba( 0, 0, 0, 1)"/>

    <rect width="1" height="1" x="0" y="11" fill="rgba( 0, 0, 0, 1)"/>
    <rect width="1" height="1" x="1" y="11" fill="rgba( 0, 0, 0, 1)"/>
    <rect width="1" height="1" x="2" y="11" fill="rgba( 229, 25, 0, 1)"/>
    <rect width="1" height="1" x="3" y="11" fill="rgba( 213, 34, 6, 1)"/>
    <rect width="1" height="1" x="4" y="11" fill="rgba( 198, 42, 14, 1)"/>
    <rect width="1" height="1" x="5" y="11" fill="rgba( 183, 51, 20, 1)"/>
    <rect width="1" height="1" x="6" y="11" fill="rgba( 169, 59, 26, 1)"/>
    <rect width="1" height="1" x="7" y="11" fill="rgba( 155, 67, 30, 1)"/>
    <rect width="1" height="1" x="8" y="11" fill="rgba( 142, 76, 35, 1)"/>
    <rect width="1" height="1" x="9" y="11" fill="rgba( 130, 84, 39, 1)"/>
    <rect width="1" height="1" x="10" y="11" fill="rgba( 118, 93, 43, 1)"/>
    <rect width="1" height="1" x="11" y="11" fill="rgba( 106, 101, 45, 1)"/>
    <rect width="1" height="1" x="12" y="11" fill="rgba( 96, 110, 48, 1)"/>
    <rect width="1" height="1" x="13" y="11" fill="rgba( 85, 118, 49, 1)"/>
    <rect width="1" height="1" x="14" y="11" fill="rgba( 76, 127, 51, 1)"/>
    <rect width="1" height="1" x="15" y="11" fill="rgba( 67, 135, 51, 1)"/>
    <rect width="1" height="1" x="16" y="11" fill="rgba( 0, 0, 0, 1)"/>
    <rect width="1" height="1" x="17" y="11" fill="rgba( 0, 0, 0, 1)"/>
    <rect width="1" height="1" x="18" y="11" fill="rgba( 0, 0, 0, 1)"/>
    <rect width="1" height="1" x="19" y="11" fill="rgba( 0, 0, 0, 1)"/>

    <rect width="1" height="1" x="0" y="12" fill="rgba( 0, 0, 0, 1)"/>
    <rect width="1" height="1" x="1" y="12" fill="rgba( 0, 0, 0, 1)"/>
    <rect width="1" height="1" x="2" y="12" fill="rgba( 0, 0, 0, 1)"/>
    <rect width="1" height="1" x="3" y="12" fill="rgba( 0, 0, 0, 1)"/>
    <rect width="1" height="1" x="4" y="12" fill="rgba( 204, 50, 0, 1)"/>
    <rect width="1" height="1" x="5" y="12" fill="rgba( 188, 59, 6, 1)"/>
    <rect width="1" height="1" x="6" y="12" fill="rgba( 174, 67, 12, 1)"/>
    <rect width="1" height="1" x="7" y="12" fill="rgba( 160, 76, 17, 1)"/>
    <rect width="1" height="1" x="8" y="12" fill="rgba( 147, 84, 22, 1)"/>
    <rect width="1" height="1" x="9" y="12" fill="rgba( 134, 93, 26, 1)"/>
    <rect width="1" height="1" x="10" y="12" fill="rgba( 122, 102, 30, 1)"/>
    <rect width="1" height="1" x="11" y="12" fill="rgba( 110, 110, 33, 1)"/>
    <rect width="1" height="1" x="12" y="12" fill="rgba( 99, 119, 36, 1)"/>
    <rect width="1" height="1" x="13" y="12" fill="rgba( 89, 127, 38, 1)"/>
    <rect width="1" height="1" x="14" y="12" fill="rgba( 79, 135, 39, 1)"/>
    <rect width="1" height="1" x="15" y="12" fill="rgba( 69, 144, 40, 1)"/>
    <rect width="1" height="1" x="16" y="12" fill="rgba( 61, 153, 40, 1)"/>
    <rect width="1" height="1" x="17" y="12" fill="rgba( 0, 0, 0, 1)"/>
    <rect width="1" height="1" x="18" y="12" fill="rgba( 0, 0, 0, 1)"/>
    <rect width="1" height="1" x="19" y="12" fill="rgba( 0, 0, 0, 1)"/>

    <rect width="1" height="1" x="0" y="13" fill="rgba( 0, 0, 0, 1)"/>
    <rect width="1" height="1" x="1" y="13" fill="rgba( 0, 0, 0, 1)"/>
    <rect width="1" height="1" x="2" y="13" fill="rgba( 0, 0, 0, 1)"/>
    <rect width="1" height="1" x="3" y="13" fill="rgba( 0, 0, 0, 1)"/>
    <rect width="1" height="1" x="4" y="13" fill="rgba( 0, 0, 0, 1)"/>
    <rect width="1" height="1" x="5" y="13" fill="rgba( 0, 0, 0, 1)"/>
    <rect width="1" height="1" x="6" y="13" fill="rgba( 178, 76, 0, 1)"/>
    <rect width="1" height="1" x="7" y="13" fill="rgba( 164, 85, 5, 1)"/>
    <rect width="1" height="1" x="8" y="13" fill="rgba( 150, 93, 10, 1)"/>
    <rect width="1" height="1" x="9" y="13" fill="rgba( 137, 102, 15, 1)"/>
    <rect width="1" height="1" x="10" y="13" fill="rgba( 125, 110, 19, 1)"/>
    <rect width="1" height="1" x="11" y="13" fill="rgba( 113, 118, 22, 1)"/>
    <rect width="1" height="1" x="12" y="13" fill="rgba( 102, 127, 25, 1)"/>
    <rect width="1" height="1" x="13" y="13" fill="rgba( 91, 135, 27, 1)"/>
    <rect width="1" height="1" x="14" y="13" fill="rgba( 81, 144, 29, 1)"/>
    <rect width="1" height="1" x="15" y="13" fill="rgba( 71, 152, 30, 1)"/>
    <rect width="1" height="1" x="16" y="13" fill="rgba( 62, 161, 31, 1)"/>
    <rect width="1" height="1" x="17" y="13" fill="rgba( 0, 0, 0, 1)"/>
    <rect width="1" height="1" x="18" y="13" fill="rgba( 0, 0, 0, 1)"/>
    <rect width="1" height="1" x="19" y="13" fill="rgba( 0, 0, 0, 1)"/>

    <rect width="1" height="1" x="0" y="14" fill="rgba( 0, 0, 0, 1)"/>
    <rect width="1" height="1" x="1" y="14" fill="rgba( 0, 0, 0, 1)"/>
    <rect width="1" height="1" x="2" y="14" fill="rgba( 0, 0, 0, 1)"/>
    <rect width="1" height="1" x="3" y="14" fill="rgba( 0, 0, 0, 1)"/>
    <rect width="1" height="1" x="4" y="14" fill="rgba( 0, 0, 0, 1)"/>
    <rect width="1" height="1" x="5" y="14" fill="rgba( 0, 0, 0, 1)"/>
    <rect width="1" height="1" x="6" y="14" fill="rgba( 0, 0, 0, 1)"/>
    <rect width="1" height="1" x="7" y="14" fill="rgba( 0, 0, 0, 1)"/>
    <rect width="1" height="1" x="8" y="14" fill="rgba( 153, 101, 0, 1)"/>
    <rect width="1" height="1" x="9" y="14" fill="rgba( 139, 110, 4, 1)"/>
    <rect width="1" height="1" x="10" y="14" fill="rgba( 126, 118, 9, 1)"/>
    <rect width="1" height="1" x="11" y="14" fill="rgba( 114, 127, 12, 1)"/>
    <rect width="1" height="1" x="12" y="14" fill="rgba( 103, 135, 15, 1)"/>
    <rect width="1" height="1" x="13" y="14" fill="rgba( 91, 144, 18, 1)"/>
    <rect width="1" height="1" x="14" y="14" fill="rgba( 81, 153, 20, 1)"/>
    <rect width="1" height="1" x="15" y="14" fill="rgba( 71, 161, 21, 1)"/>
    <rect width="1" height="1" x="16" y="14" fill="rgba( 62, 169, 22, 1)"/>
    <rect width="1" height="1" x="17" y="14" fill="rgba( 53, 178, 22, 1)"/>
    <rect width="1" height="1" x="18" y="14" fill="rgba( 0, 0, 0, 1)"/>
    <rect width="1" height="1" x="19" y="14" fill="rgba( 0, 0, 0, 1)"/>

    <rect width="1" height="1" x="0" y="15" fill="rgba( 0, 0, 0, 1)"/>
    <rect width="1" height="1" x="1" y="15" fill="rgba( 0, 0, 0, 1)"/>
    <rect width="1" height="1" x="2" y="15" fill="rgba( 0, 0, 0, 1)"/>
    <rect width="1" height="1" x="3" y="15" fill="rgba( 0, 0, 0, 1)"/>
    <rect width="1" height="1" x="4" y="15" fill="rgba( 0, 0, 0, 1)"/>
    <rect width="1" height="1" x="5" y="15" fill="rgba( 0, 0, 0, 1)"/>
    <rect width="1" height="1" x="6" y="15" fill="rgba( 0, 0, 0, 1)"/>
    <rect width="1" height="1" x="7" y="15" fill="rgba( 0, 0, 0, 1)"/>
    <rect width="1" height="1" x="8" y="15" fill="rgba( 0, 0, 0, 1)"/>
    <rect width="1" height="1" x="9" y="15" fill="rgba( 0, 0, 0, 1)"/>
    <rect width="1" height="1" x="10" y="15" fill="rgba( 127, 127, 0, 1)"/>
    <rect width="1" height="1" x="11" y="15" fill="rgba( 114, 135, 3, 1)"/>
    <rect width="1" height="1" x="12" y="15" fill="rgba( 103, 144, 7, 1)"/>
    <rect width="1" height="1" x="13" y="15" fill="rgba( 91, 152, 10, 1)"/>
    <rect width="1" height="1" x="14" y="15" fill="rgba( 81, 161, 12, 1)"/>
    <rect width="1" height="1" x="15" y="15" fill="rgba( 70, 169, 14, 1)"/>
    <rect width="1" height="1" x="16" y="15" fill="rgba( 61, 178, 15, 1)"/>
    <rect width="1" height="1" x="17" y="15" fill="rgba( 52, 186, 15, 1)"/>
    <rect width="1" height="1" x="18" y="15" fill="rgba( 0, 0, 0, 1)"/>
    <rect width="1" height="1" x="19" y="15" fill="rgba( 0, 0, 0, 1)"/>

    <rect width="1" height="1" x="0" y="16" fill="rgba( 0, 0, 0, 1)"/>
    <rect width="1" height="1" x="1" y="16" fill="rgba( 0, 0, 0, 1)"/>
    <rect width="1" height="1" x="2" y="16" fill="rgba( 0, 0, 0, 1)"/>
    <rect width="1" height="1" x="3" y="16" fill="rgba( 0, 0, 0, 1)"/>
    <rect width="1" height="1" x="4" y="16" fill="rgba( 0, 0, 0, 1)"/>
    <rect width="1" height="1" x="5" y="16" fill="rgba( 0, 0, 0, 1)"/>
    <rect width="1" height="1" x="6" y="16" fill="rgba( 0, 0, 0, 1)"/>
    <rect width="1" height="1" x="7" y="16" fill="rgba( 0, 0, 0, 1)"/>
    <rect width="1" height="1" x="8" y="16" fill="rgba( 0, 0, 0, 1)"/>
    <rect width="1" height="1" x="9" y="16" fill="rgba( 0, 0, 0, 1)"/>
    <rect width="1" height="1" x="10" y="16" fill="rgba( 0, 0, 0, 1)"/>
    <rect width="1" height="1" x="11" y="16" fill="rgba( 0, 0, 0, 1)"/>
    <rect width="1" height="1" x="12" y="16" fill="rgba( 102, 153, 0, 1)"/>
    <rect width="1" height="1" x="13" y="16" fill="rgba( 90, 161, 2, 1)"/>
    <rect width="1" height="1" x="14" y="16" fill="rgba( 79, 170, 5, 1)"/>
    <rect width="1" height="1" x="15" y="16" fill="rgba( 68, 178, 7, 1)"/>
    <rect width="1" height="1" x="16" y="16" fill="rgba( 58, 187, 9, 1)"/>
    <rect width="1" height="1" x="17" y="16" fill="rgba( 49, 195, 9, 1)"/>
    <rect width="1" height="1" x="18" y="16" fill="rgba( 40, 204, 10, 1)"/>
    <rect width="1" height="1" x="19" y="16" fill="rgba( 0, 0, 0, 1)"/>

    <rect width="1" height="1" x="0" y="17" fill="rgba( 0, 0, 0, 1)"/>
    <rect width="1" height="1" x="1" y="17" fill="rgba( 0, 0, 0, 1)"/>
    <rect width="1" height="1" x="2" y="17" fill="rgba( 0, 0, 0, 1)"/>
    <rect width="1" height="1" x="3" y="17" fill="rgba( 0, 0, 0, 1)"/>
    <rect width="1" height="1" x="4" y="17" fill="rgba( 0, 0, 0, 1)"/>
    <rect width="1" height="1" x="5" y="17" fill="rgba( 0, 0, 0, 1)"/>
    <rect width="1" height="1" x="6" y="17" fill="rgba( 0, 0, 0, 1)"/>
    <rect width="1" height="1" x="7" y="17" fill="rgba( 0, 0, 0, 1)"/>
    <rect width="1" height="1" x="8" y="17" fill="rgba( 0, 0, 0, 1)"/>
    <rect width="1" height="1" x="9" y="17" fill="rgba( 0, 0, 0, 1)"/>
    <rect width="1" height="1" x="10" y="17" fill="rgba( 0, 0, 0, 1)"/>
    <rect width="1" height="1" x="11" y="17" fill="rgba( 0, 0, 0, 1)"/>
    <rect width="1" height="1" x="12" y="17" fill="rgba( 0, 0, 0, 1)"/>
    <rect width="1" height="1" x="13" y="17" fill="rgba( 0, 0, 0, 1)"/>
    <rect width="1" height="1" x="14" y="17" fill="rgba( 76, 178, 0, 1)"/>
    <rect width="1" height="1" x="15" y="17" fill="rgba( 65, 186, 2, 1)"/>
    <rect width="1" height="1" x="16" y="17" fill="rgba( 55, 195, 3, 1)"/>
    <rect width="1" height="1" x="17" y="17" fill="rgba( 45, 203, 5, 1)"/>
    <rect width="1" height="1" x="18" y="17" fill="rgba( 36, 212, 5, 1)"/>
    <rect width="1" height="1" x="19" y="17" fill="rgba( 0, 0, 0, 1)"/>

    <rect width="1" height="1" x="0" y="18" fill="rgba( 0, 0, 0, 1)"/>
    <rect width="1" height="1" x="1" y="18" fill="rgba( 0, 0, 0, 1)"/>
    <rect width="1" height="1" x="2" y="18" fill="rgba( 0, 0, 0, 1)"/>
    <rect width="1" height="1" x="3" y="18" fill="rgba( 0, 0, 0, 1)"/>
    <rect width="1" height="1" x="4" y="18" fill="rgba( 0, 0, 0, 1)"/>
    <rect width="1" height="1" x="5" y="18" fill="rgba( 0, 0, 0, 1)"/>
    <rect width="1" height="1" x="6" y="18" fill="rgba( 0, 0, 0, 1)"/>
    <rect width="1" height="1" x="7" y="18" fill="rgba( 0, 0, 0, 1)"/>
    <rect width="1" height="1" x="8" y="18" fill="rgba( 0, 0, 0, 1)"/>
    <rect width="1" height="1" x="9" y="18" fill="rgba( 0, 0, 0, 1)"/>
    <rect width="1" height="1" x="10" y="18" fill="rgba( 0, 0, 0, 1)"/>
    <rect width="1" height="1" x="11" y="18" fill="rgba( 0, 0, 0, 1)"/>
    <rect width="1" height="1" x="12" y="18" fill="rgba( 0, 0, 0, 1)"/>
    <rect width="1" height="1" x="13" y="18" fill="rgba( 0, 0, 0, 1)"/>
    <rect width="1" height="1" x="14" y="18" fill="rgba( 0, 0, 0, 1)"/>
    <rect width="1" height="1" x="15" y="18" fill="rgba( 0, 0, 0, 1)"/>
    <rect width="1" height="1" x="16" y="18" fill="rgba( 51, 204, 0, 1)"/>
    <rect width="1" height="1" x="17" y="18" fill="rgba( 41, 212, 1, 1)"/>
    <rect width="1" height="1" x="18" y="18" fill="rgba( 31, 221, 2, 1)"/>
    <rect width="1" height="1" x="19" y="18" fill="rgba( 22, 229, 2, 1)"/>

    <rect width="1" height="1" x="0" y="19" fill="rgba( 0, 0, 0, 1)"/>
    <rect width="1" height="1" x="1" y="19" fill="rgba( 0, 0, 0, 1)"/>
    <rect width="1" height="1" x="2" y="19" fill="rgba( 0, 0, 0, 1)"/>
    <rect width="1" height="1" x="3" y="19" fill="rgba( 0, 0, 0, 1)"/>
    <rect width="1" height="1" x="4" y="19" fill="rgba( 0, 0, 0, 1)"/>
    <rect width="1" height="1" x="5" y="19" fill="rgba( 0, 0, 0, 1)"/>
    <rect width="1" height="1" x="6" y="19" fill="rgba( 0, 0, 0, 1)"/>
    <rect width="1" height="1" x="7" y="19" fill="rgba( 0, 0, 0, 1)"/>
    <rect width="1" height="1" x="8" y="19" fill="rgba( 0, 0, 0, 1)"/>
    <rect width="1" height="1" x="9" y="19" fill="rgba( 0, 0, 0, 1)"/>
    <rect width="1" height="1" x="10" y="19" fill="rgba( 0, 0, 0, 1)"/>
    <rect width="1" height="1" x="11" y="19" fill="rgba( 0, 0, 0, 1)"/>
    <rect width="1" height="1" x="12" y="19" fill="rgba( 0, 0, 0, 1)"/>
    <rect width="1" height="1" x="13" y="19" fill="rgba( 0, 0, 0, 1)"/>
    <rect width="1" height="1" x="14" y="19" fill="rgba( 0, 0, 0, 1)"/>
    <rect width="1" height="1" x="15" y="19" fill="rgba( 0, 0, 0, 1)"/>
    <rect width="1" height="1" x="16" y="19" fill="rgba( 0, 0, 0, 1)"/>
    <rect width="1" height="1" x="17" y="19" fill="rgba( 0, 0, 0, 1)"/>
    <rect width="1" height="1" x="18" y="19" fill="rgba( 25, 229, 0, 1)"/>
    <rect width="1" height="1" x="19" y="19" fill="rgba( 16, 237, 0, 1)"/>

</svg>