<?xml version="1.0" standalone="no"?>
<svg width="20" height="20" version="1.1" xmlns="http://www.w3.org/2000/svg">
    <rect width="1" height="1" x="0" y="0" fill="rgba( 0, 255, 255, 1)"/>
    <rect width="1" height="1" x="1" y="0" fill="rgba( 12, 242, 249, 1)"/>
    <rect width="1" height="1" x="2" y="0" fill="rgba( 25, 229, 243, 1)"/>
    <rect width="1" height="1" x="3" y="0" fill="rgba( 38, 216, 238, 1)"/>
    <rect width="1" height="1" x="4" y="0" fill="rgba( 51, 204, 232, 1)"/>
    <rect width="1" height="1" x="5" y="0" fill="rgba( 63, 191, 227, 1)"/>
    <rect width="1" height="1" x="6" y="0" fill="rgba( 76, 178, 221, 1)"/>
    <rect width="1" height="1" x="7" y="0" fill="rgba( 89, 165, 216, 1)"/>
    <rect width="1" height="1" x="8" y="0" fill="rgba( 102, 153, 210, 1)"/>
    <rect width="1" height="1" x="9" y="0" fill="rgba( 114, 140, 205, 1)"/>
    <rect width="1" height="1" x="10" y="0" fill="rgba( 127, 127, 199, 1)"/>
    <rect width="1" height="1" x="11" y="0" fill="rgba( 140, 114, 193, 1)"/>
    <rect width="1" height="1" x="12" y="0" fill="rgba( 153, 101, 188, 1)"/>
    <rect width="1" height="1" x="13" y="0" fill="rgba( 165, 89, 182, 1)"/>
    <rect width="1" height="1" x="14" y="0" fill="rgba( 178, 76, 177, 1)"/>
    <rect width="1" height="1" x="15" y="0" fill="rgba( 191, 63, 171, 1)"/>
    <rect width="1" height="1" x="16" y="0" fill="rgba( 204, 50, 166, 1)"/>
    <rect width="1" height="1" x="17" y="0" fill="rgba( 216, 38, 160, 1)"/>
    <rect width="1" height="1" x="18" y="0" fill="rgba( 229, 25, 155, 1)"/>
    <rect width="1" height="1" x="19" y="0" fill="rgba( 242, 12, 149, 1)"/>

    <rect width="1" height="1" x="0" y="1" fill="rgba( 12, 242, 249, 1)"/>
    <rect width="1" height="1" x="1" y="1" fill="rgba( 25, 232, 242, 1)"/>
    <rect width="1" height="1" x="2" y="1" fill="rgba( 38, 220, 236, 1)"/>
    <rect width="1" height="1" x="3" y="1" fill="rgba( 51, 208, 229, 1)"/>
    <rect width="1" height="1" x="4" y="1" fill="rgba( 63, 197, 223, 1)"/>
    <rect width="1" height="1" x="5" y="1" fill="rgba( 76, 186, 217, 1)"/>
    <rect width="1" height="1" x="6" y="1" fill="rgba( 89, 174, 210, 1)"/>
    <rect width="1" height="1" x="7" y="1" fill="rgba( 102, 162, 204, 1)"/>
    <rect width="1" height="1" x="8" y="1" fill="rgba( 114, 151, 198, 1)"/>
    <rect width="1" height="1" x="9" y="1" fill="rgba( 127, 140, 192, 1)"/>
    <rect width="1" height="1" x="10" y="1" fill="rgba( 140, 128, 185, 1)"/>
    <rect width="1" height="1" x="11" y="1" fill="rgba( 153, 117, 179, 1)"/>
    <rect width="1" height="1" x="12" y="1" fill="rgba( 165, 105, 173, 1)"/>
    <rect width="1" height="1" x="13" y="1" fill="rgba( 178, 93, 166, 1)"/>
    <rect width="1" height="1" x="14" y="1" fill="rgba( 191, 82, 160, 1)"/>
    <rect width="1" height="1" x="15" y="1" fill="rgba( 204, 71, 154, 1)"/>
    <rect width="1" height="1" x="16" y="1" fill="rgba( 216, 59, 147, 1)"/>
    <rect width="1" height="1" x="17" y="1" fill="rgba( 229, 47, 141, 1)"/>
    <rect width="1" height="1" x="18" y="1" fill="rgba( 242, 36, 135, 1)"/>
    <rect width="1" height="1" x="19" y="1" fill="rgba( 255, 25, 129, 1)"/>

    <rect width="1" height="1" x="0" y="2" fill="rgba( 25, 229, 243, 1)"/>
    <rect width="1" height="1" x="1" y="2" fill="rgba( 38, 220, 236, 1)"/>
    <rect width="1" height="1" x="2" y="2" fill="rgba( 51, 214, 227, 1)"/>
    <rect width="1" height="1" x="3" y="2" fill="rgba( 63, 204, 220, 1)"/>
    <rect width="1" height="1" x="4" y="2" fill="rgba( 76, 193, 213, 1)"/>
    <rect width="1" height="1" x="5" y="2" fill="rgba( 89, 183, 206, 1)"/>
    <rect width="1" height="1" x="6" y="2" fill="rgba( 102, 173, 199, 1)"/>
    <rect width="1" height="1" x="7" y="2" fill="rgba( 114, 163, 192, 1)"/>
    <rect width="1" height="1" x="8" y="2" fill="rgba( 127, 153, 185, 1)"/>
    <rect width="1" height="1" x="9" y="2" fill="rgba( 140, 142, 178, 1)"/>
    <rect width="1" height="1" x="10" y="2" fill="rgba( 153, 132, 171, 1)"/>
    <rect width="1" height="1" x="11" y="2" fill="rgba( 165, 122, 164, 1)"/>
    <rect width="1" height="1" x="12" y="2" fill="rgba( 178, 112, 157, 1)"/>
    <rect width="1" height="1" x="13" y="2" fill="rgba( 191, 102, 150, 1)"/>
    <rect width="1" height="1" x="14" y="2" fill="rgba( 204, 91, 143, 1)"/>
    <rect width="1" height="1" x="15" y="2" fill="rgba( 216, 81, 136, 1)"/>
    <rect width="1" height="1" x="16" y="2" fill="rgba( 229, 71, 129, 1)"/>
    <rect width="1" height="1" x="17" y="2" fill="rgba( 242, 61, 122, 1)"/>
    <rect width="1" height="1" x="18" y="2" fill="rgba( 255, 50, 115, 1)"/>
    <rect width="1" height="1" x="19" y="2" fill="rgba( 242, 36, 135, 1)"/>

    <rect width="1" height="1" x="0" y="3" fill="rgba( 38, 216, 238, 1)"/>
    <rect width="1" height="1" x="1" y="3" fill="rgba( 51, 208, 229, 1)"/>
    <rect width="1" height="1" x="2" y="3" fill="rgba( 63, 204, 220, 1)"/>
    <rect width="1" height="1" x="3" y="3" fill="rgba( 76, 201, 208, 1)"/>
    <rect width="1" height="1" x="4" y="3" fill="rgba( 89, 192, 200, 1)"/>
    <rect width="1" height="1" x="5" y="3" fill="rgba( 102, 183, 193, 1)"/>
    <rect width="1" height="1" x="6" y="3" fill="rgba( 114, 174, 185, 1)"/>
    <rect width="1" height="1" x="7" y="3" fill="rgba( 127, 165, 177, 1)"/>
    <rect width="1" height="1" x="8" y="3" fill="rgba( 140, 156, 169, 1)"/>
    <rect width="1" height="1" x="9" y="3" fill="rgba( 153, 147, 162, 1)"/>
    <rect width="1" height="1" x="10" y="3" fill="rgba( 165, 138, 154, 1)"/>
    <rect width="1" height="1" x="11" y="3" fill="rgba( 178, 129, 146, 1)"/>
    <rect width="1" height="1" x="12" y="3" fill="rgba( 191, 120, 138, 1)"/>
    <rect width="1" height="1" x="13" y="3" fill="rgba( 204, 111, 131, 1)"/>
    <rect width="1" height="1" x="14" y="3" fill="rgba( 216, 102, 123, 1)"/>
    <rect width="1" height="1" x="15" y="3" fill="rgba( 229, 93, 115, 1)"/>
    <rect width="1" height="1" x="16" y="3" fill="rgba( 242, 84, 107, 1)"/>
    <rect width="1" height="1" x="17" y="3" fill="rgba( 255, 76, 100, 1)"/>
    <rect width="1" height="1" x="18" y="3" fill="rgba( 242, 61, 122, 1)"/>
    <rect width="1" height="1" x="19" y="3" fill="rgba( 229, 47, 141, 1)"/>

    <rect width="1" height="1" x="0" y="4" fill="rgba( 51, 204, 232, 1)"/>
    <rect width="1" height="1" x="1" y="4" fill="rgba( 63, 197, 223, 1)"/>
    <rect width="1" height="1" x="2" y="4" fill="rgba( 76, 193, 213, 1)"/>
    <rect width="1" height="1" x="3" y="4" fill="rgba( 89, 192, 200, 1)"/>
    <rect width="1" height="1" x="4" y="4" fill="rgba( 102, 193, 187, 1)"/>
    <rect width="1" height="1" x="5" y="4" fill="rgba( 114, 186, 178, 1)"/>
    <rect width="1" height="1" x="6" y="4" fill="rgba( 127, 178, 170, 1)"/>
    <rect width="1" height="1" x="7" y="4" fill="rgba( 140, 170, 162, 1)"/>
    <rect width="1" height="1" x="8" y="4" fill="rgba( 153, 163, 153, 1)"/>
    <rect width="1" height="1" x="9" y="4" fill="rgba( 165, 155, 145, 1)"/>
    <rect width="1" height="1" x="10" y="4" fill="rgba( 178, 147, 136, 1)"/>
    <rect width="1" height="1" x="11" y="4" fill="rgba( 191, 140, 128, 1)"/>
    <rect width="1" height="1" x="12" y="4" fill="rgba( 204, 132, 119, 1)"/>
    <rect width="1" height="1" x="13" y="4" fill="rgba( 216, 124, 111, 1)"/>
    <rect width="1" height="1" x="14" y="4" fill="rgba( 229, 117, 102, 1)"/>
    <rect width="1" height="1" x="15" y="4" fill="rgba( 242, 109, 94, 1)"/>
    <rect width="1" height="1" x="16" y="4" fill="rgba( 255, 101, 85, 1)"/>
    <rect width="1" height="1" x="17" y="4" fill="rgba( 242, 84, 107, 1)"/>
    <rect width="1" height="1" x="18" y="4" fill="rgba( 229, 71, 129, 1)"/>
    <rect width="1" height="1" x="19" y="4" fill="rgba( 216, 59, 147, 1)"/>

    <rect width="1" height="1" x="0" y="5" fill="rgba( 63, 191, 227, 1)"/>
    <rect width="1" height="1" x="1" y="5" fill="rgba( 76, 186, 217, 1)"/>
    <rect width="1" height="1" x="2" y="5" fill="rgba( 89, 183, 206, 1)"/>
    <rect width="1" height="1" x="3" y="5" fill="rgba( 102, 183, 193, 1)"/>
    <rect width="1" height="1" x="4" y="5" fill="rgba( 114, 186, 178, 1)"/>
    <rect width="1" height="1" x="5" y="5" fill="rgba( 127, 191, 163, 1)"/>
    <rect width="1" height="1" x="6" y="5" fill="rgba( 140, 184, 154, 1)"/>
    <rect width="1" height="1" x="7" y="5" fill="rgba( 153, 178, 145, 1)"/>
    <rect width="1" height="1" x="8" y="5" fill="rgba( 165, 171, 136, 1)"/>
    <rect width="1" height="1" x="9" y="5" fill="rgba( 178, 165, 126, 1)"/>
    <rect width="1" height="1" x="10" y="5" fill="rgba( 191, 159, 117, 1)"/>
    <rect width="1" height="1" x="11" y="5" fill="rgba( 204, 152, 108, 1)"/>
    <rect width="1" height="1" x="12" y="5" fill="rgba( 216, 146, 99, 1)"/>
    <rect width="1" height="1" x="13" y="5" fill="rgba( 229, 139, 90, 1)"/>
    <rect width="1" height="1" x="14" y="5" fill="rgba( 242, 133, 81, 1)"/>
    <rect width="1" height="1" x="15" y="5" fill="rgba( 255, 127, 72, 1)"/>
    <rect width="1" height="1" x="16" y="5" fill="rgba( 242, 109, 94, 1)"/>
    <rect width="1" height="1" x="17" y="5" fill="rgba( 229, 93, 115, 1)"/>
    <rect width="1" height="1" x="18" y="5" fill="rgba( 216, 81, 136, 1)"/>
    <rect width="1" height="1" x="19" y="5" fill="rgba( 204, 71, 154, 1)"/>

    <rect width="1" height="1" x="0" y="6" fill="rgba( 76, 178, 221, 1)"/>
    <rect width="1" height="1" x="1" y="6" fill="rgba( 89, 174, 210, 1)"/>
    <rect width="1" height="1" x="2" y="6" fill="rgba( 102, 173, 199, 1)"/>
    <rect width="1" height="1" x="3" y="6" fill="rgba( 114, 174, 185, 1)"/>
    <rect width="1" height="1" x="4" y="6" fill="rgba( 127, 178, 170, 1)"/>
    <rect width="1" height="1" x="5" y="6" fill="rgba( 140, 184, 154, 1)"/>
    <rect width="1" height="1" x="6" y="6" fill="rgba( 153, 193, 136, 1)"/>
    <rect width="1" height="1" x="7" y="6" fill="rgba( 165, 188, 126, 1)"/>
    <rect width="1" height="1" x="8" y="6" fill="rgba( 178, 183, 116, 1)"/>
    <rect width="1" height="1" x="9" y="6" fill="rgba( 191, 178, 106, 1)"/>
    <rect width="1" height="1" x="10" y="6" fill="rgba( 204, 173, 96, 1)"/>
    <rect width="1" height="1" x="11" y="6" fill="rgba( 216, 168, 86, 1)"/>
    <rect width="1" height="1" x="12" y="6" fill="rgba( 229, 163, 76, 1)"/>
    <rect width="1" height="1" x="13" y="6" fill="rgba( 242, 158, 66, 1)"/>
    <rect width="1" height="1" x="14" y="6" fill="rgba( 255, 153, 57, 1)"/>
    <rect width="1" height="1" x="15" y="6" fill="rgba( 242, 133, 81, 1)"/>
    <rect width="1" height="1" x="16" y="6" fill="rgba( 229, 117, 102, 1)"/>
    <rect width="1" height="1" x="17" y="6" fill="rgba( 216, 102, 123, 1)"/>
    <rect width="1" height="1" x="18" y="6" fill="rgba( 204, 91, 143, 1)"/>
    <rect width="1" height="1" x="19" y="6" fill="rgba( 191, 82, 160, 1)"/>

    <rect width="1" height="1" x="0" y="7" fill="rgba( 89, 165, 216, 1)"/>
    <rect width="1" height="1" x="1" y="7" fill="rgba( 102, 162, 204, 1)"/>
    <rect width="1" height="1" x="2" y="7" fill="rgba( 114, 163, 192, 1)"/>
    <rect width="1" height="1" x="3" y="7" fill="rgba( 127, 165, 177, 1)"/>
    <rect width="1" height="1" x="4" y="7" fill="rgba( 140, 170, 162, 1)"/>
    <rect width="1" height="1" x="5" y="7" fill="rgba( 153, 178, 145, 1)"/>
    <rect width="1" height="1" x="6" y="7" fill="rgba( 165, 188, 126, 1)"/>
    <rect width="1" height="1" x="7" y="7" fill="rgba( 178, 201, 106, 1)"/>
    <rect width="1" height="1" x="8" y="7" fill="rgba( 191, 197, 96, 1)"/>
    <rect width="1" height="1" x="9" y="7" fill="rgba( 204, 193, 85, 1)"/>
    <rect width="1" height="1" x="10" y="7" fill="rgba( 216, 189, 74, 1)"/>
    <rect width="1" height="1" x="11" y="7" fill="rgba( 229, 185, 64, 1)"/>
    <rect width="1" height="1" x="12" y="7" fill="rgba( 242, 181, 53, 1)"/>
    <rect width="1" height="1" x="13" y="7" fill="rgba( 255, 178, 43, 1)"/>
    <rect width="1" height="1" x="14" y="7" fill="rgba( 242, 158, 66, 1)"/>
    <rect width="1" height="1" x="15" y="7" fill="rgba( 229, 139, 90, 1)"/>
    <rect width="1" height="1" x="16" y="7" fill="rgba( 216, 124, 111, 1)"/>
    <rect width="1" height="1" x="17" y="7" fill="rgba( 204, 111, 131, 1)"/>
    <rect width="1" height="1" x="18" y="7" fill="rgba( 191, 102, 150, 1)"/>
    <rect width="1" height="1" x="19" y="7" fill="rgba( 178, 93, 166, 1)"/>

    <rect width="1" height="1" x="0" y="8" fill="rgba( 102, 153, 210, 1)"/>
    <rect width="1" height="1" x="1" y="8" fill="rgba( 114, 151, 198, 1)"/>
    <rect width="1" height="1" x="2" y="8" fill="rgba( 127, 153, 185, 1)"/>
    <rect width="1" height="1" x="3" y="8" fill="rgba( 140, 156, 169, 1)"/>
    <rect width="1" height="1" x="4" y="8" fill="rgba( 153, 163, 153, 1)"/>
    <rect width="1" height="1" x="5" y="8" fill="rgba( 165, 171, 136, 1)"/>
    <rect width="1" height="1" x="6" y="8" fill="rgba( 178, 183, 116, 1)"/>
    <rect width="1" height="1" x="7" y="8" fill="rgba( 191, 197, 96, 1)"/>
    <rect width="1" height="1" x="8" y="8" fill="rgba( 204, 214, 73, 1)"/>
    <rect width="1" height="1" x="9" y="8" fill="rgba( 216, 211, 62, 1)"/>
    <rect width="1" height="1" x="10" y="8" fill="rgba( 229, 209, 50, 1)"/>
    <rect width="1" height="1" x="11" y="8" fill="rgba( 242, 206, 39, 1)"/>
    <rect width="1" height="1" x="12" y="8" fill="rgba( 255, 204, 28, 1)"/>
    <rect width="1" height="1" x="13" y="8" fill="rgba( 242, 181, 53, 1)"/>
    <rect width="1" height="1" x="14" y="8" fill="rgba( 229, 163, 76, 1)"/>
    <rect width="1" height="1" x="15" y="8" fill="rgba( 216, 146, 99, 1)"/>
    <rect width="1" height="1" x="16" y="8" fill="rgba( 204, 132, 119, 1)"/>
    <rect width="1" height="1" x="17" y="8" fill="rgba( 191, 120, 138, 1)"/>
    <rect width="1" height="1" x="18" y="8" fill="rgba( 178, 112, 157, 1)"/>
    <rect width="1" height="1" x="19" y="8" fill="rgba( 165, 105, 173, 1)"/>

    <rect width="1" height="1" x="0" y="9" fill="rgba( 114, 140, 205, 1)"/>
    <rect width="1" height="1" x="1" y="9" fill="rgba( 127, 140, 192, 1)"/>
    <rect width="1" height="1" x="2" y="9" fill="rgba( 140, 142, 178, 1)"/>
    <rect width="1" height="1" x="3" y="9" fill="rgba( 153, 147, 162, 1)"/>
    <rect width="1" height="1" x="4" y="9" fill="rgba( 165, 155, 145, 1)"/>
    <rect width="1" height="1" x="5" y="9" fill="rgba( 178, 165, 126, 1)"/>
    <rect width="1" height="1" x="6" y="9" fill="rgba( 191, 178, 106, 1)"/>
    <rect width="1" height="1" x="7" y="9" fill="rgba( 204, 193, 85, 1)"/>
    <rect width="1" height="1" x="8" y="9" fill="rgba( 216, 211, 62, 1)"/>
    <rect width="1" height="1" x="9" y="9" fill="rgba( 229, 231, 38, 1)"/>
    <rect width="1" height="1" x="10" y="9" fill="rgba( 242, 230, 26, 1)"/>
    <rect width="1" height="1" x="11" y="9" fill="rgba( 255, 229, 14, 1)"/>
    <rect width="1" height="1" x="12" y="9" fill="rgba( 242, 206, 39, 1)"/>
    <rect width="1" height="1" x="13" y="9" fill="rgba( 229, 185, 64, 1)"/>
    <rect width="1" height="1" x="14" y="9" fill="rgba( 216, 168, 86, 1)"/>
    <rect width="1" height="1" x="15" y="9" fill="rgba( 204, 152, 108, 1)"/>
    <rect width="1" height="1" x="16" y="9" fill="rgba( 191, 140, 128, 1)"/>
    <rect width="1" height="1" x="17" y="9" fill="rgba( 178, 129, 146, 1)"/>
    <rect width="1" height="1" x="18" y="9" fill="rgba( 165, 122, 164, 1)"/>
    <rect width="1" height="1" x="19" y="9" fill="rgba( 153, 117, 179, 1)"/>

    <rect width="1" height="1" x="0" y="10" fill="rgba( 127, 127, 199, 1)"/>
    <rect width="1" height="1" x="1" y="10" fill="rgba( 140, 128, 185, 1)"/>
    <rect width="1" height="1" x="2" y="10" fill="rgba( 153, 132, 171, 1)"/>
    <rect width="1" height="1" x="3" y="10" fill="rgba( 165, 138, 154, 1)"/>
    <rect width="1" height="1" x="4" y="10" fill="rgba( 178, 147, 136, 1)"/>
    <rect width="1" height="1" x="5" y="10" fill="rgba( 191, 159, 117, 1)"/>
    <rect width="1" height="1" x="6" y="10" fill="rgba( 204, 173, 96, 1)"/>
    <rect width="1" height="1" x="7" y="10" fill="rgba( 216, 189, 74, 1)"/>
    <rect width="1" height="1" x="8" y="10" fill="rgba( 229, 209, 50, 1)"/>
    <rect width="1" height="1" x="9" y="10" fill="rgba( 242, 230, 26, 1)"/>
    <rect width="1" height="1" x="10" y="10" fill="rgba( 255, 255, 0, 1)"/>
    <rect width="1" height="1" x="11" y="10" fill="rgba( 242, 230, 26, 1)"/>
    <rect width="1" height="1" x="12" y="10" fill="rgba( 229, 209, 50, 1)"/>
    <rect width="1" height="1" x="13" y="10" fill="rgba( 216, 189, 74, 1)"/>
    <rect width="1" height="1" x="14" y="10" fill="rgba( 204, 173, 96, 1)"/>
    <rect width="1" height="1" x="15" y="10" fill="rgba( 191, 159, 117, 1)"/>
    <rect width="1" height="1" x="16" y="10" fill="rgba( 178, 147, 136, 1)"/>
    <rect width="1" height="1" x="17" y="10" fill="rgba( 165, 138, 154, 1)"/>
    <rect width="1" height="1" x="18" y="10" fill="rgba( 153, 132, 171, 1)"/>
    <rect width="1" height="1" x="19" y="10" fill="rgba( 140, 128, 185, 1)"/>

    <rect width="1" height="1" x="0" y="11" fill="rgba( 140, 114, 193, 1)"/>
    <rect width="1" height="1" x="1" y="11" fill="rgba( 153, 117, 179, 1)"/>
    <rect width="1" height="1" x="2" y="11" fill="rgba( 165, 122, 164, 1)"/>
    <rect width="1" height="1" x="3" y="11" fill="rgba( 178, 129, 146, 1)"/>
    <rect width="1" height="1" x="4" y="11" fill="rgba( 191, 140, 128, 1)"/>
    <rect width="1" height="1" x="5" y="11" fill="rgba( 204, 152, 108, 1)"/>
    <rect width="1" height="1" x="6" y="11" fill="rgba( 216, 168, 86, 1)"/>
    <rect width="1" height="1" x="7" y="11" fill="rgba( 229, 185, 64, 1)"/>
    <rect width="1" height="1" x="8" y="11" fill="rgba( 242, 206, 39, 1)"/>
    <rect width="1" height="1" x="9" y="11" fill="rgba( 255, 229, 14, 1)"/>
    <rect width="1" height="1" x="10" y="11" fill="rgba( 242, 230, 26, 1)"/>
    <rect width="1" height="1" x="11" y="11" fill="rgba( 229, 231, 38, 1)"/>
    <rect width="1" height="1" x="12" y="11" fill="rgba( 216, 211, 62, 1)"/>
    <rect width="1" height="1" x="13" y="11" fill="rgba( 204, 193, 85, 1)"/>
    <rect width="1" height="1" x="14" y="11" fill="rgba( 191, 178, 106, 1)"/>
    <rect width="1" height="1" x="15" y="11" fill="rgba( 178, 165, 126, 1)"/>
    <rect width="1" height="1" x="16" y="11" fill="rgba( 165, 155, 145, 1)"/>
    <rect width="1" height="1" x="17" y="11" fill="rgba( 153, 147, 162, 1)"/>
    <rect width="1" height="1" x="18" y="11" fill="rgba( 140, 142, 178, 1)"/>
    <rect width="1" height="1" x="19" y="11" fill="rgba( 127, 140, 192, 1)"/>

    <rect width="1" height="1" x="0" y="12" fill="rgba( 153, 101, 188, 1)"/>
    <rect width="1" height="1" x="1" y="12" fill="rgba( 165, 105, 173, 1)"/>
    <rect width="1" height="1" x="2" y="12" fill="rgba( 178, 112, 157, 1)"/>
    <rect width="1" height="1" x="3" y="12" fill="rgba( 191, 120, 138, 1)"/>
    <rect width="1" height="1" x="4" y="12" fill="rgba( 204, 132, 119, 1)"/>
    <rect width="1" height="1" x="5" y="12" fill="rgba( 216, 146, 99, 1)"/>
    <rect width="1" height="1" x="6" y="12" fill="rgba( 229, 163, 76, 1)"/>
    <rect width="1" height="1" x="7" y="12" fill="rgba( 242, 181, 53, 1)"/>
    <rect width="1" height="1" x="8" y="12" fill="rgba( 255, 204, 28, 1)"/>
    <rect width="1" height="1" x="9" y="12" fill="rgba( 242, 206, 39, 1)"/>
    <rect width="1" height="1" x="10" y="12" fill="rgba( 229, 209, 50, 1)"/>
    <rect width="1" height="1" x="11" y="12" fill="rgba( 216, 211, 62, 1)"/>
    <rect width="1" height="1" x="12" y="12" fill="rgba( 204, 214, 73, 1)"/>
    <rect width="1" height="1" x="13" y="12" fill="rgba( 191, 197, 96, 1)"/>
    <rect width="1" height="1" x="14" y="12" fill="rgba( 178, 183, 116, 1)"/>
    <rect width="1" height="1" x="15" y="12" fill="rgba( 165, 171, 136, 1)"/>
    <rect width="1" height="1" x="16" y="12" fill="rgba( 153, 163, 153, 1)"/>
    <rect width="1" height="1" x="17" y="12" fill="rgba( 140, 156, 169, 1)"/>
    <rect width="1" height="1" x="18" y="12" fill="rgba( 127, 153, 185, 1)"/>
    <rect width="1" height="1" x="19" y="12" fill="rgba( 114, 151, 198, 1)"/>

    <rect width="1" height="1" x="0" y="13" fill="rgba( 165, 89, 182, 1)"/>
    <rect width="1" height="1" x="1" y="13" fill="rgba( 178, 93, 166, 1)"/>
    <rect width="1" height="1" x="2" y="13" fill="rgba( 191, 102, 150, 1)"/>
    <rect width="1" height="1" x="3" y="13" fill="rgba( 204, 111, 131, 1)"/>
    <rect width="1" height="1" x="4" y="13" fill="rgba( 216, 124, 111, 1)"/>
    <rect width="1" height="1" x="5" y="13" fill="rgba( 229, 139, 90, 1)"/>
    <rect width="1" height="1" x="6" y="13" fill="rgba( 242, 158, 66, 1)"/>
    <rect width="1" height="1" x="7" y="13" fill="rgba( 255, 178, 43, 1)"/>
    <rect width="1" height="1" x="8" y="13" fill="rgba( 242, 181, 53, 1)"/>
    <rect width="1" height="1" x="9" y="13" fill="rgba( 229, 185, 64, 1)"/>
    <rect width="1" height="1" x="10" y="13" fill="rgba( 216, 189, 74, 1)"/>
    <rect width="1" height="1" x="11" y="13" fill="rgba( 204, 193, 85, 1)"/>
    <rect width="1" height="1" x="12" y="13" fill="rgba( 191, 197, 96, 1)"/>
    <rect width="1" height="1" x="13" y="13" fill="rgba( 178, 201, 106, 1)"/>
    <rect width="1" height="1" x="14" y="13" fill="rgba( 165, 188, 126, 1)"/>
    <rect width="1" height="1" x="15" y="13" fill="rgba( 153, 178, 145, 1)"/>
    <rect width="1" height="1" x="16" y="13" fill="rgba( 140, 170, 162, 1)"/>
    <rect width="1" height="1" x="17" y="13" fill="rgba( 127, 165, 177, 1)"/>
    <rect width="1" height="1" x="18" y="13" fill="rgba( 114, 163, 192, 1)"/>
    <rect width="1" height="1" x="19" y="13" fill="rgba( 102, 162, 204, 1)"/>

    <rect width="1" height="1" x="0" y="14" fill="rgba( 178, 76, 177, 1)"/>
    <rect width="1" height="1" x="1" y="14" fill="rgba( 191, 82, 160, 1)"/>
    <rect width="1" height="1" x="2" y="14" fill="rgba( 204, 91, 143, 1)"/>
    <rect width="1" height="1" x="3" y="14" fill="rgba( 216, 102, 123, 1)"/>
    <rect width="1" height="1" x="4" y="14" fill="rgba( 229, 117, 102, 1)"/>
    <rect width="1" height="1" x="5" y="14" fill="rgba( 242, 133, 81, 1)"/>
    <rect width="1" height="1" x="6" y="14" fill="rgba( 255, 153, 57, 1)"/>
    <rect width="1" height="1" x="7" y="14" fill="rgba( 242, 158, 66, 1)"/>
    <rect width="1" height="1" x="8" y="14" fill="rgba( 229, 163, 76, 1)"/>
    <rect width="1" height="1" x="9" y="14" fill="rgba( 216, 168, 86, 1)"/>
    <rect width="1" height="1" x="10" y="14" fill="rgba( 204, 173, 96, 1)"/>
    <rect width="1" height="1" x="11" y="14" fill="rgba( 191, 178, 106, 1)"/>
    <rect width="1" height="1" x="12" y="14" fill="rgba( 178, 183, 116, 1)"/>
    <rect width="1" height="1" x="13" y="14" fill="rgba( 165, 188, 126, 1)"/>
    <rect width="1" height="1" x="14" y="14" fill="rgba( 153, 193, 136, 1)"/>
    <rect width="1" height="1" x="15" y="14" fill="rgba( 140, 184, 154, 1)"/>
    <rect width="1" height="1" x="16" y="14" fill="rgba( 127, 178, 170, 1)"/>
    <rect width="1" height="1" x="17" y="14" fill="rgba( 114, 174, 185, 1)"/>
    <rect width="1" height="1" x="18" y="14" fill="rgba( 102, 173, 199, 1)"/>
    <rect width="1" height="1" x="19" y="14" fill="rgba( 89, 174, 210, 1)"/>

    <rect width="1" height="1" x="0" y="15" fill="rgba( 191, 63, 171, 1)"/>
    <rect width="1" height="1" x="1" y="15" fill="rgba( 204, 71, 154, 1)"/>
    <rect width="1" height="1" x="2" y="15" fill="rgba( 216, 81, 136, 1)"/>
    <rect width="1" height="1" x="3" y="15" fill="rgba( 229, 93, 115, 1)"/>
    <rect width="1" height="1" x="4" y="15" fill="rgba( 242, 109, 94, 1)"/>
    <rect width="1" height="1" x="5" y="15" fill="rgba( 255, 127, 72, 1)"/>
    <rect width="1" height="1" x="6" y="15" fill="rgba( 242, 133, 81, 1)"/>
    <rect width="1" height="1" x="7" y="15" fill="rgba( 229, 139, 90, 1)"/>
    <rect width="1" height="1" x="8" y="15" fill="rgba( 216, 146, 99, 1)"/>
    <rect width="1" height="1" x="9" y="15" fill="rgba( 204, 152, 108, 1)"/>
    <rect width="1" height="1" x="10" y="15" fill="rgba( 191, 159, 117, 1)"/>
    <rect width="1" height="1" x="11" y="15" fill="rgba( 178, 165, 126, 1)"/>
    <rect width="1" height="1" x="12" y="15" fill="rgba( 165, 171, 136, 1)"/>
    <rect width="1" height="1" x="13" y="15" fill="rgba( 153, 178, 145, 1)"/>
    <rect width="1" height="1" x="14" y="15" fill="rgba( 140, 184, 154, 1)"/>
    <rect width="1" height="1" x="15" y="15" fill="rgba( 127, 191, 163, 1)"/>
    <rect width="1" height="1" x="16" y="15" fill="rgba( 114, 186, 178, 1)"/>
    <rect width="1" height="1" x="17" y="15" fill="rgba( 102, 183, 193, 1)"/>
    <rect width="1" height="1" x="18" y="15" fill="rgba( 89, 183, 206, 1)"/>
    <rect width="1" height="1" x="19" y="15" fill="rgba( 76, 186, 217, 1)"/>

    <rect width="1" height="1" x="0" y="16" fill="rgba( 204, 50, 166, 1)"/>
    <rect width="1" height="1" x="1" y="16" fill="rgba( 216, 59, 147, 1)"/>
    <rect width="1" height="1" x="2" y="16" fill="rgba( 229, 71, 129, 1)"/>
    <rect width="1" height="1" x="3" y="16" fill="rgba( 242, 84, 107, 1)"/>
    <rect width="1" height="1" x="4" y="16" fill="rgba( 255, 101, 85, 1)"/>
    <rect width="1" height="1" x="5" y="16" fill="rgba( 242, 109, 94, 1)"/>
    <rect width="1" height="1" x="6" y="16" fill="rgba( 229, 117, 102, 1)"/>
    <rect width="1" height="1" x="7" y="16" fill="rgba( 216, 124, 111, 1)"/>
    <rect width="1" height="1" x="8" y="16" fill="rgba( 204, 132, 119, 1)"/>
    <rect width="1" height="1" x="9" y="16" fill="rgba( 191, 140, 128, 1)"/>
    <rect width="1" height="1" x="10" y="16" fill="rgba( 178, 147, 136, 1)"/>
    <rect width="1" height="1" x="11" y="16" fill="rgba( 165, 155, 145, 1)"/>
    <rect width="1" height="1" x="12" y="16" fill="rgba( 153, 163, 153, 1)"/>
    <rect width="1" height="1" x="13" y="16" fill="rgba( 140, 170, 162, 1)"/>
    <rect width="1" height="1" x="14" y="16" fill="rgba( 127, 178, 170, 1)"/>
    <rect width="1" height="1" x="15" y="16" fill="rgba( 114, 186, 178, 1)"/>
    <rect width="1" height="1" x="16" y="16" fill="rgba( 102, 193, 187, 1)"/>
    <rect width="1" height="1" x="17" y="16" fill="rgba( 89, 192, 200, 1)"/>
    <rect width="1" height="1" x="18" y="16" fill="rgba( 76, 193, 213, 1)"/>
    <rect width="1" height="1" x="19" y="16" fill="rgba( 63, 197, 223, 1)"/>

    <rect width="1" height="1" x="0" y="17" fill="rgba( 216, 38, 160, 1)"/>
    <rect width="1" height="1" x="1" y="17" fill="rgba( 229, 47, 141, 1)"/>
    <rect width="1" height="1" x="2" y="17" fill="rgba( 242, 61, 122, 1)"/>
    <rect width="1" height="1" x="3" y="17" fill="rgba( 255, 76, 100, 1)"/>
    <rect width="1" height="1" x="4" y="17" fill="rgba( 242, 84, 107, 1)"/>
    <rect width="1" height="1" x="5" y="17" fill="rgba( 229, 93, 115, 1)"/>
    <rect width="1" height="1" x="6" y="17" fill="rgba( 216, 102, 123, 1)"/>
    <rect width="1" height="1" x="7" y="17" fill="rgba( 204, 111, 131, 1)"/>
    <rect width="1" height="1" x="8" y="17" fill="rgba( 191, 120, 138, 1)"/>
    <rect width="1" height="1" x="9" y="17" fill="rgba( 178, 129, 146, 1)"/>
    <rect width="1" height="1" x="10" y="17" fill="rgba( 165, 138, 154, 1)"/>
    <rect width="1" height="1" x="11" y="17" fill="rgba( 153, 147, 162, 1)"/>
    <rect width="1" height="1" x="12" y="17" fill="rgba( 140, 156, 169, 1)"/>
    <rect width="1" height="1" x="13" y="17" fill="rgba( 127, 165, 177, 1)"/>
    <rect width="1" height="1" x="14" y="17" fill="rgba( 114, 174, 185, 1)"/>
    <rect width="1" height="1" x="15" y="17" fill="rgba( 102, 183, 193, 1)"/>
    <rect width="1" height="1" x="16" y="17" fill="rgba( 89, 192, 200, 1)"/>
    <rect width="1" height="1" x="17" y="17" fill="rgba( 76, 201, 208, 1)"/>
    <rect width="1" height="1" x="18" y="17" fill="rgba( 63, 204, 220, 1)"/>
    <rect width="1" height="1" x="19" y="17" fill="rgba( 51, 208, 229, 1)"/>

    <rect width="1" height="1" x="0" y="18" fill="rgba( 229, 25, 155, 1)"/>
    <rect width="1" height="1" x="1" y="18" fill="rgba( 242, 36, 135, 1)"/>
    <rect width="1" height="1" x="2" y="18" fill="rgba( 255, 50, 115, 1)"/>
    <rect width="1" height="1" x="3" y="18" fill="rgba( 242, 61, 122, 1)"/>
    <rect width="1" height="1" x="4" y="18" fill="rgba( 229, 71, 129, 1)"/>
    <rect width="1" height="1" x="5" y="18" fill="rgba( 216, 81, 136, 1)"/>
    <rect width="1" height="1" x="6" y="18" fill="rgba( 204, 91, 143, 1)"/>
    <rect width="1" height="1" x="7" y="18" fill="rgba( 191, 102, 150, 1)"/>
    <rect width="1" height="1" x="8" y="18" fill="rgba( 178, 112, 157, 1)"/>
    <rect width="1" height="1" x="9" y="18" fill="rgba( 165, 122, 164, 1)"/>
    <rect width="1" height="1" x="10" y="18" fill="rgba( 153, 132, 171, 1)"/>
    <rect width="1" height="1" x="11" y="18" fill="rgba( 140, 142, 178, 1)"/>
    <rect width="1" height="1" x="12" y="18" fill="rgba( 127, 153, 185, 1)"/>
    <rect width="1" height="1" x="13" y="18" fill="rgba( 114, 163, 192, 1)"/>
    <rect width="1" height="1" x="14" y="18" fill="rgba( 102, 173, 199, 1)"/>
    <rect width="1" height="1" x="15" y="18" fill="rgba( 89, 183, 206, 1)"/>
    <rect width="1" height="1" x="16" y="18" fill="rgba( 76, 193, 213, 1)"/>
    <rect width="1" height="1" x="17" y="18" fill="rgba( 63, 204, 220, 1)"/>
    <rect width="1" height="1" x="18" y="18" fill="rgba( 51, 214, 227, 1)"/>
    <rect width="1" height="1" x="19" y="18" fill="rgba( 38, 220, 236, 1)"/>

    <rect width="1" height="1" x="0" y="19" fill="rgba( 242, 12, 149, 1)"/>
    <rect width="1" height="1" x="1" y="19" fill="rgba( 255, 25, 129, 1)"/>
    <rect width="1" height="1" x="2" y="19" fill="rgba( 242, 36, 135, 1)"/>
    <rect width="1" height="1" x="3" y="19" fill="rgba( 229, 47, 141, 1)"/>
    <rect width="1" height="1" x="4" y="19" fill="rgba( 216, 59, 147, 1)"/>
    <rect width="1" height="1" x="5" y="19" fill="rgba( 204, 71, 154, 1)"/>
    <rect width="1" height="1" x="6" y="19" fill="rgba( 191, 82, 160, 1)"/>
    <rect width="1" height="1" x="7" y="19" fill="rgba( 178, 93, 166, 1)"/>
    <rect width="1" height="1" x="8" y="19" fill="rgba( 165, 105, 173, 1)"/>
    <rect width="1" height="1" x="9" y="19" fill="rgba( 153, 117, 179, 1)"/>
    <rect width="1" height="1" x="10" y="19" fill="rgba( 140, 128, 185, 1)"/>
    <rect width="1" height="1" x="11" y="19" fill="rgba( 127, 140, 192, 1)"/>
    <rect width="1" height="1" x="12" y="19" fill="rgba( 114, 151, 198, 1)"/>
    <rect width="1" height="1" x="13" y="19" fill="rgba( 102, 162, 204, 1)"/>
    <rect width="1" height="1" x="14" y="19" fill="rgba( 89, 174, 210, 1)"/>
    <rect width="1" height="1" x="15" y="19" fill="rgba( 76, 186, 217, 1)"/>
    <rect width="1" height="1" x="16" y="19" fill="rgba( 63, 197, 223, 1)"/>
    <rect width="1" height="1" x="17" y="19" fill="rgba( 51, 208, 229, 1)"/>
    <rect width="1" height="1" x="18" y="19" fill="rgba( 38, 220, 236, 1)"/>
    <rect width="1" height="1" x="19" y="19" fill="rgba( 25, 232, 242, 1)"/>

</svg>